<svg xmlns="http://www.w3.org/2000/svg" viewBox="0 0 64 64"><path d="M 31 2 C 15.01 2 2 15.009 2 31 C 2 46.991 15.01 60 31 60 C 46.99 60 60 46.991 60 31 C 60 15.009 46.99 2 31 2 z M 31 4 C 45.888 4 58 16.112 58 31 C 58 45.888 45.888 58 31 58 C 16.112 58 4 45.888 4 31 C 4 16.112 16.112 4 31 4 z M 31.462891 8.0117188 C 30.352891 7.9897187 29.253969 8.0495469 28.167969 8.1855469 C 28.001969 8.2065469 27.836875 8.2269531 27.671875 8.2519531 C 27.319875 8.3039531 26.969094 8.3597344 26.621094 8.4277344 C 26.480094 8.4557344 26.340219 8.4895313 26.199219 8.5195312 C 25.577219 8.6535313 24.963422 8.8101406 24.357422 8.9941406 C 24.181422 9.0471406 24.003125 9.0972969 23.828125 9.1542969 C 23.540125 9.2492969 23.256656 9.3549375 22.972656 9.4609375 C 22.730656 9.5509375 22.490953 9.6441875 22.251953 9.7421875 C 22.007953 9.8431875 21.763438 9.9417812 21.523438 10.050781 C 21.067438 10.256781 20.615828 10.474937 20.173828 10.710938 C 20.043828 10.779938 19.920969 10.857687 19.792969 10.929688 C 19.424969 11.134688 19.060125 11.349219 18.703125 11.574219 C 18.562125 11.663219 18.422203 11.754656 18.283203 11.847656 C 17.898203 12.102656 17.520391 12.369438 17.150391 12.648438 C 17.075391 12.704437 16.997828 12.756453 16.923828 12.814453 C 16.471828 13.163453 16.032469 13.531016 15.605469 13.916016 C 15.539469 13.976016 15.475156 14.038609 15.410156 14.099609 C 15.184156 14.307609 14.956281 14.514422 14.738281 14.732422 C 14.659281 14.811422 14.593625 14.900469 14.515625 14.980469 C 14.161625 15.344469 13.823187 15.723328 13.492188 16.111328 C 13.356188 16.271328 13.211078 16.426844 13.080078 16.589844 C 12.646078 17.128844 12.234656 17.685578 11.847656 18.267578 C 11.733656 18.439578 11.636344 18.618969 11.527344 18.792969 C 11.263344 19.213969 11.005578 19.637125 10.767578 20.078125 C 10.633578 20.327125 10.514625 20.581984 10.390625 20.833984 C 10.266625 21.084984 10.130625 21.328938 10.015625 21.585938 C 9.924625 21.787938 9.8467188 21.990359 9.7617188 22.193359 C 9.7287188 22.272359 9.6941094 22.351641 9.6621094 22.431641 C 9.3991094 23.086641 9.1697031 23.746156 8.9707031 24.410156 C 8.9647031 24.430156 8.959125 24.450703 8.953125 24.470703 C 8.097125 27.357703 7.8361875 30.313406 8.1171875 33.191406 C 8.1181875 33.200406 8.1200937 33.208797 8.1210938 33.216797 C 8.1890937 33.905797 8.2870156 34.590578 8.4160156 35.267578 C 8.4330156 35.360578 8.4536563 35.453875 8.4726562 35.546875 C 8.5936563 36.142875 8.7353437 36.732406 8.9023438 37.316406 C 8.9503438 37.486406 9.0046406 37.656172 9.0566406 37.826172 C 9.2166406 38.339172 9.3928906 38.846656 9.5878906 39.347656 C 9.6708906 39.561656 9.7576563 39.774328 9.8476562 39.986328 C 10.045656 40.453328 10.259281 40.914187 10.488281 41.367188 C 10.595281 41.580188 10.705312 41.791953 10.820312 42.001953 C 11.073313 42.466953 11.343906 42.923094 11.628906 43.371094 C 11.736906 43.541094 11.845984 43.709953 11.958984 43.876953 C 12.293984 44.373953 12.651391 44.856125 13.025391 45.328125 C 13.107391 45.431125 13.186484 45.534719 13.271484 45.636719 C 13.709484 46.169719 14.174109 46.681781 14.662109 47.175781 C 14.689109 47.202781 14.711281 47.233766 14.738281 47.259766 C 14.743281 47.264766 14.750859 47.264531 14.755859 47.269531 C 16.676859 49.191531 18.966844 50.806422 21.589844 51.982422 C 24.636844 53.348422 27.824797 53.995141 30.966797 53.994141 C 37.040797 53.994141 42.932859 51.573625 47.255859 47.265625 C 47.258859 47.262625 47.262625 47.260812 47.265625 47.257812 C 47.298625 47.224812 47.326375 47.188297 47.359375 47.154297 C 47.814375 46.694297 48.246063 46.209031 48.664062 45.707031 C 48.782063 45.566031 48.897719 45.42425 49.011719 45.28125 C 49.360719 44.84125 49.694672 44.387969 50.013672 43.917969 C 50.095672 43.796969 50.184672 43.678641 50.263672 43.556641 C 50.627672 42.997641 50.969109 42.418313 51.287109 41.820312 C 51.379109 41.648313 51.459875 41.472828 51.546875 41.298828 C 51.694875 41.002828 51.849328 40.71125 51.986328 40.40625 C 52.071328 40.21725 52.144609 40.023031 52.224609 39.832031 C 52.267609 39.729031 52.312516 39.628391 52.353516 39.525391 C 52.610516 38.883391 52.836203 38.232172 53.033203 37.576172 C 53.040203 37.553172 53.045734 37.532766 53.052734 37.509766 C 54.517734 32.576766 54.282281 27.312953 52.363281 22.501953 C 52.322281 22.399953 52.280281 22.297312 52.238281 22.195312 C 52.020281 21.670313 51.79025 21.147766 51.53125 20.634766 C 51.52225 20.616766 51.504141 20.605891 51.494141 20.587891 C 50.425141 18.478891 49.022719 16.497328 47.261719 14.736328 C 46.603719 14.077328 45.898969 13.453859 45.167969 12.880859 C 44.730969 12.539859 44.104672 12.615781 43.763672 13.050781 C 43.422672 13.485781 43.498594 14.112125 43.933594 14.453125 C 44.601594 14.976125 45.245656 15.548391 45.847656 16.150391 C 47.858656 18.161391 49.369578 20.483891 50.392578 22.962891 C 50.430578 23.053891 50.467906 23.145328 50.503906 23.236328 C 52.237906 27.611328 52.450766 32.453406 51.134766 36.941406 C 51.127766 36.965406 51.120281 36.988672 51.113281 37.013672 C 50.935281 37.612672 50.727141 38.205063 50.494141 38.789062 C 50.457141 38.882063 50.416906 38.974406 50.378906 39.066406 C 50.229906 39.425406 50.057672 39.775953 49.888672 40.126953 C 49.720672 40.474953 49.547281 40.818344 49.363281 41.152344 C 49.204281 41.440344 49.034328 41.723859 48.861328 42.005859 C 48.673328 42.310859 48.481297 42.611297 48.279297 42.904297 C 48.073297 43.202297 47.855812 43.496156 47.632812 43.785156 C 47.435812 44.042156 47.235344 44.297969 47.027344 44.542969 C 46.776344 44.839969 46.512188 45.127109 46.242188 45.412109 C 40.275188 51.709109 30.75925 53.905156 22.40625 50.160156 C 19.88825 49.031156 17.71325 47.454125 15.90625 45.578125 C 15.65625 45.319125 15.4215 45.04925 15.1875 44.78125 C 14.9495 44.50825 14.710281 44.235172 14.488281 43.951172 C 14.317281 43.733172 14.160047 43.508156 13.998047 43.285156 C 13.744047 42.933156 13.492719 42.580844 13.261719 42.214844 C 13.157719 42.049844 13.063844 41.877938 12.964844 41.710938 C 12.711844 41.283938 12.464188 40.854156 12.242188 40.410156 C 12.174188 40.274156 12.116781 40.133094 12.050781 39.996094 C 11.827781 39.526094 11.612781 39.051406 11.425781 38.566406 C 11.363781 38.404406 11.313859 38.240172 11.255859 38.076172 C 11.091859 37.620172 10.934734 37.160359 10.802734 36.693359 C 10.731734 36.440359 10.678188 36.184688 10.617188 35.929688 C 10.525187 35.552687 10.432328 35.175969 10.361328 34.792969 C 10.292328 34.415969 10.245266 34.034297 10.197266 33.654297 C 10.163266 33.389297 10.121656 33.126375 10.097656 32.859375 C 10.055656 32.381375 10.038297 31.901875 10.029297 31.421875 C 10.025297 31.243875 10.014625 31.066672 10.015625 30.888672 C 10.018625 30.371672 10.048844 29.853891 10.089844 29.337891 C 10.101844 29.183891 10.106094 29.030953 10.121094 28.876953 C 10.170094 28.384953 10.247031 27.895203 10.332031 27.408203 C 10.365031 27.215203 10.392641 27.021125 10.431641 26.828125 C 10.516641 26.404125 10.628234 25.986406 10.740234 25.566406 C 10.811234 25.300406 10.878938 25.034531 10.960938 24.769531 C 11.067937 24.423531 11.193359 24.083188 11.318359 23.742188 C 11.441359 23.409188 11.565031 23.074141 11.707031 22.744141 C 11.855031 22.396141 12.017547 22.052938 12.185547 21.710938 C 12.297547 21.483937 12.406391 21.254203 12.525391 21.033203 C 12.745391 20.625203 12.985375 20.226078 13.234375 19.830078 C 13.327375 19.682078 13.412766 19.526859 13.509766 19.380859 C 13.861766 18.851859 14.239531 18.334031 14.644531 17.832031 C 14.752531 17.698031 14.869469 17.574359 14.980469 17.443359 C 15.294469 17.072359 15.620844 16.708469 15.964844 16.355469 C 16.205844 16.108469 16.449172 15.864859 16.701172 15.630859 C 16.790172 15.547859 16.87775 15.461859 16.96875 15.380859 C 17.34075 15.046859 17.722234 14.727875 18.115234 14.421875 C 18.225234 14.335875 18.341125 14.257828 18.453125 14.173828 C 18.739125 13.959828 19.030172 13.752688 19.326172 13.554688 C 19.493172 13.442687 19.661031 13.333563 19.832031 13.226562 C 20.086031 13.066562 20.347422 12.916578 20.607422 12.767578 C 20.920422 12.589578 21.236594 12.419813 21.558594 12.257812 C 21.800594 12.135813 22.042063 12.011437 22.289062 11.898438 C 22.567062 11.772438 22.849813 11.656969 23.132812 11.542969 C 23.278813 11.483969 23.425266 11.425141 23.572266 11.369141 C 23.885266 11.251141 24.199578 11.136203 24.517578 11.033203 C 24.556578 11.020203 24.595766 11.009094 24.634766 10.996094 C 25.360766 10.765094 26.098703 10.573875 26.845703 10.421875 L 26.941406 10.400391 C 27.301406 10.329391 27.663344 10.269797 28.027344 10.216797 C 28.121344 10.202797 28.2175 10.192687 28.3125 10.179688 C 29.3545 10.043688 30.408797 9.9877656 31.466797 10.009766 C 31.685797 10.014766 31.905 10.021203 32.125 10.033203 C 32.384 10.047203 32.643344 10.063891 32.902344 10.087891 C 33.263344 10.120891 33.624328 10.164797 33.986328 10.216797 C 34.104328 10.233797 34.222844 10.242719 34.339844 10.261719 C 34.883844 10.351719 35.397375 9.9785938 35.484375 9.4335938 L 35.484375 9.4316406 C 35.572375 8.8866406 35.20225 8.3712031 34.65625 8.2832031 C 34.53325 8.2632031 34.412062 8.2582344 34.289062 8.2402344 C 33.883063 8.1822344 33.477313 8.1327031 33.070312 8.0957031 C 32.799312 8.0707031 32.530766 8.0540625 32.259766 8.0390625 C 31.993766 8.0250625 31.728891 8.0167187 31.462891 8.0117188 z M 38.660156 9.3867188 C 38.271375 9.4033125 37.911125 9.6481562 37.765625 10.035156 C 37.570625 10.553156 37.833563 11.128266 38.351562 11.322266 C 39.064563 11.589266 39.771172 11.897234 40.451172 12.240234 C 40.596172 12.313234 40.749391 12.347656 40.900391 12.347656 C 41.265391 12.347656 41.618922 12.146828 41.794922 11.798828 C 42.043922 11.305828 41.844562 10.703078 41.351562 10.455078 C 40.607563 10.079078 39.832781 9.7412188 39.050781 9.4492188 C 38.921781 9.4007187 38.78975 9.3811875 38.660156 9.3867188 z M 31 14 C 30.447 14 30 14.448 30 15 L 30 17 C 30 17.552 30.447 18 31 18 C 31.553 18 32 17.552 32 17 L 32 15 C 32 14.448 31.553 14 31 14 z M 25.021484 15.166016 C 24.891516 15.163922 24.758859 15.186781 24.630859 15.238281 C 24.118859 15.445281 23.871125 16.029016 24.078125 16.541016 L 24.828125 18.394531 C 24.985125 18.783531 25.359859 19.019531 25.755859 19.019531 C 25.880859 19.019531 26.007859 18.996266 26.130859 18.947266 C 26.642859 18.740266 26.890594 18.156531 26.683594 17.644531 L 25.933594 15.791016 C 25.779094 15.407016 25.411391 15.172297 25.021484 15.166016 z M 19.902344 18.490234 C 19.646469 18.485734 19.388453 18.579984 19.189453 18.771484 C 18.792453 19.154484 18.780062 19.788547 19.164062 20.185547 L 20.554688 21.623047 C 20.751688 21.827047 21.012437 21.929688 21.273438 21.929688 C 21.523438 21.929688 21.77475 21.836437 21.96875 21.648438 C 22.36575 21.265438 22.376187 20.631375 21.992188 20.234375 L 20.603516 18.796875 C 20.412016 18.598375 20.158219 18.494734 19.902344 18.490234 z M 26 22 C 23.794 22 22 23.794 22 26 L 22 27 C 22 27.552 22.447 28 23 28 C 23.553 28 24 27.552 24 27 L 24 26 C 24 24.897 24.897 24 26 24 L 27 24 C 28.103 24 29 24.897 29 26 L 29 28.300781 C 29 28.999781 28.628297 29.657578 28.029297 30.017578 L 27.023438 30.621094 C 25.181438 31.725094 23.793234 33.456187 23.115234 35.492188 L 22.488281 37.367188 C 22.286281 37.975187 22.388672 38.649922 22.763672 39.169922 C 23.138672 39.689922 23.746672 40 24.388672 40 L 30 40 C 30.553 40 31 39.552 31 39 C 31 38.448 30.553 38 30 38 L 24.386719 38 L 25.013672 36.123047 C 25.540672 34.540047 26.619734 33.195938 28.052734 32.335938 L 29.058594 31.730469 C 30.255594 31.011469 31 29.697781 31 28.300781 L 31 26 C 31 23.794 29.206 22 27 22 L 26 22 z M 39 22 C 38.959 22 38.924766 22.018438 38.884766 22.023438 C 38.815766 22.031437 38.750547 22.0405 38.685547 22.0625 C 38.623547 22.0835 38.569672 22.111578 38.513672 22.142578 C 38.458672 22.173578 38.408375 22.205094 38.359375 22.246094 C 38.306375 22.291094 38.263703 22.342438 38.220703 22.398438 C 38.196703 22.429437 38.163578 22.449375 38.142578 22.484375 L 32.142578 32.484375 C 31.956578 32.793375 31.951906 33.179188 32.128906 33.492188 C 32.305906 33.805187 32.64 34 33 34 L 38 34 L 38 39 C 38 39.552 38.447 40 39 40 C 39.553 40 40 39.552 40 39 L 40 34 L 41 34 C 41.553 34 42 33.552 42 33 C 42 32.448 41.553 32 41 32 L 40 32 L 40 23 C 40 22.959 39.981562 22.925719 39.976562 22.886719 C 39.968562 22.817719 39.9595 22.751547 39.9375 22.685547 C 39.9165 22.624547 39.889422 22.571625 39.857422 22.515625 C 39.826422 22.460625 39.793953 22.408375 39.751953 22.359375 C 39.706953 22.306375 39.656562 22.262703 39.601562 22.220703 C 39.570563 22.196703 39.550625 22.163578 39.515625 22.142578 C 39.495625 22.130578 39.472172 22.130141 39.451172 22.119141 C 39.391172 22.088141 39.327719 22.070734 39.261719 22.052734 C 39.195719 22.034734 39.133406 22.017672 39.066406 22.013672 C 39.043406 22.011672 39.024 22 39 22 z M 16.402344 23.492188 C 16.012766 23.485156 15.637953 23.707937 15.470703 24.085938 C 15.245703 24.589938 15.471563 25.18225 15.976562 25.40625 L 17.804688 26.21875 C 17.936688 26.27775 18.073984 26.306641 18.208984 26.306641 C 18.592984 26.306641 18.958047 26.085891 19.123047 25.712891 C 19.348047 25.208891 19.120234 24.616578 18.615234 24.392578 L 16.789062 23.578125 C 16.663062 23.522125 16.532203 23.494531 16.402344 23.492188 z M 38 26.611328 L 38 32 L 34.767578 32 L 38 26.611328 z M 15 30 C 14.447 30 14 30.448 14 31 C 14 31.552 14.447 32 15 32 L 17 32 C 17.553 32 18 31.552 18 31 C 18 30.448 17.553 30 17 30 L 15 30 z M 45 30 C 44.447 30 44 30.448 44 31 C 44 31.552 44.447 32 45 32 L 47 32 C 47.553 32 48 31.552 48 31 C 48 30.448 47.553 30 47 30 L 45 30 z M 31 44 C 30.447 44 30 44.448 30 45 L 30 47 C 30 47.552 30.447 48 31 48 C 31.553 48 32 47.552 32 47 L 32 45 C 32 44.448 31.553 44 31 44 z"/></svg>