<svg xmlns="http://www.w3.org/2000/svg" xmlns:svg="http://www.w3.org/2000/svg" style="enable-background:new 0 0 45 45" id="svg2" version="1.1" viewBox="0 0 45 40" xml:space="preserve"><metadata id="metadata8"/><defs id="defs6"><clipPath id="clipPath16" clipPathUnits="userSpaceOnUse"><path id="path18" d="M 0,36 36,36 36,0 0,0 0,36 Z"/></clipPath></defs><g id="g10" transform="matrix(1.25,0,0,-1.25,0,45)"><g id="g12"><g id="g14" clip-path="url(#clipPath16)"><g id="g20" transform="translate(35.8848,24.1665)"><path id="path22" d="m 0,2 c 0,5.45 -4.418,9.868 -9.867,9.868 -3.308,0 -6.227,-1.633 -8.018,-4.129 -1.79,2.496 -4.71,4.129 -8.017,4.129 -5.45,0 -9.868,-4.418 -9.868,-9.868 0,-0.772 0.098,-1.52 0.266,-2.241 1.371,-8.512 10.835,-17.494 17.619,-19.96 6.783,2.466 16.249,11.448 17.617,19.96 C -0.098,-1.52 0,-0.772 0,0" style="fill:$COLOR;fill-opacity:1;fill-rule:nonzero;stroke:none"/></g></g></g></g></svg>