<svg xmlns="http://www.w3.org/2000/svg" xmlns:xlink="http://www.w3.org/1999/xlink" style="enable-background:new 0 0 502 502" id="Layer_1" width="512" height="512" x="0" y="0" version="1.1" viewBox="0 0 502 502" xml:space="preserve"><g><g><g><path d="M414.48,192.559c-5.708-12.287-5.72-26.534-0.034-39.088c5.58-12.315,6.635-24.022,3.136-34.796 c-3.561-10.955-11.492-19.918-23.574-26.638c-11.84-6.585-20.224-18.104-23.002-31.604c-2.727-13.243-8.754-23.333-17.916-29.99 c-9.576-6.958-21.63-9.501-35.829-7.557c-13.144,1.797-26.702-2.215-37.202-11.012C270.657,3.995,260.565,0,250.063,0 c-11.164,0-21.832,4.493-31.707,13.354c-10.002,8.974-23.257,13.271-36.377,11.783c-13.49-1.53-24.982,1.085-34.171,7.759 c-9.03,6.562-15.021,16.467-17.803,29.441c-2.817,13.138-11.02,24.405-22.504,30.914c-11.808,6.692-19.574,15.562-23.084,26.362 c-3.449,10.617-2.473,22.151,2.903,34.282c5.442,12.284,5.43,26.222-0.035,38.236c-5.62,12.354-6.689,24.096-3.181,34.896 c3.449,10.616,11.02,19.374,22.499,26.029c11.625,6.739,19.807,18.021,22.447,30.954c2.714,13.298,8.75,23.426,17.939,30.103 c4.765,3.462,10.197,5.827,16.22,7.091V492c0,3.867,2.229,7.388,5.726,9.04c3.495,1.653,7.63,1.143,10.62-1.312L251,441.069 l71.443,58.659c1.824,1.498,4.075,2.271,6.348,2.271c1.45,0,2.91-0.315,4.272-0.96c3.496-1.652,5.726-5.173,5.726-9.04V323.404 c5.583-1.315,10.649-3.59,15.119-6.837c9.318-6.771,15.392-17.083,18.05-30.651c2.604-13.296,10.969-24.829,22.949-31.643 c11.753-6.686,19.486-15.536,22.987-26.308C421.453,217.011,420.304,205.098,414.48,192.559z M318.788,470.85l-61.443-50.448 c-1.845-1.515-4.095-2.271-6.346-2.271s-4.501,0.757-6.346,2.271L183.21,470.85V321.953c12.424,0.091,24.285,4.843,33.058,13.376 c10.442,10.157,21.813,15.308,33.795,15.308c11.521,0,22.495-4.773,32.618-14.188c9.667-8.988,22.777-13.389,36.107-12.2V470.85z M398.873,221.785c-1.91,5.879-6.572,10.961-13.854,15.104c-17.048,9.696-28.962,26.165-32.688,45.182 c-1.655,8.45-5.08,14.612-10.178,18.316c-3.655,2.655-8.284,4.11-13.756,4.326c-2.012,0.076-4.138-0.007-6.331-0.251 c-19.492-2.18-38.81,4.145-53.003,17.34c-6.304,5.862-12.696,8.835-19,8.835c-6.593,0-13.271-3.244-19.85-9.644 c-12.61-12.267-29.63-19.055-47.385-19.055c-1.832,0-3.674,0.072-5.517,0.218c-1.306,0.104-2.632,0.15-3.942,0.125 c-5.86-0.093-10.781-1.556-14.624-4.348c-5.018-3.646-8.415-9.676-10.099-17.923c-3.783-18.524-15.451-34.654-32.012-44.256 c-7.085-4.107-11.63-9.122-13.509-14.906c-1.916-5.898-1.121-12.773,2.364-20.436c7.828-17.21,7.87-37.117,0.115-54.62 c-3.317-7.486-4.047-14.215-2.167-19.999c1.916-5.898,6.601-10.992,13.924-15.143c16.449-9.322,28.185-25.404,32.197-44.121 c1.718-8.007,5.083-13.879,10.004-17.454c5.017-3.646,11.802-5.01,20.165-4.066c18.787,2.129,37.733-3.984,51.983-16.77 c6.094-5.468,12.268-8.24,18.351-8.24c5.677,0,11.446,2.423,17.149,7.203c14.813,12.412,34.048,18.065,52.761,15.497 c8.912-1.218,16.1,0.1,21.36,3.922c5.001,3.634,8.393,9.638,10.082,17.844c3.955,19.21,15.935,35.63,32.87,45.05 c7.523,4.185,12.326,9.346,14.274,15.34c1.91,5.88,1.126,12.73-2.332,20.362c-8.092,17.865-8.051,38.191,0.113,55.767 C399.968,208.793,400.82,215.792,398.873,221.785z"/><path d="M251,54.878c-66.412,0-120.441,54.029-120.441,120.44c0,66.412,54.029,120.441,120.441,120.441 s120.441-54.029,120.441-120.441C371.441,108.907,317.412,54.878,251,54.878z M251,275.76 c-55.384,0-100.441-45.058-100.441-100.441c0-55.383,45.058-100.44,100.441-100.44s100.441,45.058,100.441,100.44 C351.441,230.702,306.383,275.76,251,275.76z"/><path fill="$COLOR" d="M213.214,100.344c-28.471,14.373-46.157,43.102-46.157,74.975c0,5.522,4.478,10,10,10c5.522,0,10-4.478,10-10 c0-24.281,13.477-46.169,35.171-57.121c4.93-2.489,6.909-8.503,4.42-13.434C224.158,99.832,218.143,97.854,213.214,100.344z"/><path d="M275.371,94.972c-7.875-2.386-16.075-3.596-24.371-3.596c-5.522,0-10,4.478-10,10c0,5.522,4.478,10,10,10 c6.33,0,12.579,0.921,18.572,2.736c0.967,0.293,1.942,0.433,2.903,0.433c4.291,0,8.258-2.784,9.566-7.104 C283.643,102.156,280.657,96.573,275.371,94.972z"/></g></g></g></svg>