<svg xmlns="http://www.w3.org/2000/svg" viewBox="0 0 64 64"><path d="M 13 2 C 11.346 2 10 3.346 10 5 C 10 6.302 10.839 7.4024062 12 7.8164062 L 12 14.580078 C 12 16.450078 13.019922 18.139766 14.669922 19.009766 L 28 26.019531 L 28 27 C 28 28.19 28.700938 29.219219 29.710938 29.699219 L 26.189453 38.349609 L 12.910156 39.560547 C 12.510156 39.600547 12.170781 39.87 12.050781 40.25 C 11.930781 40.63 12.039844 41.050547 12.339844 41.310547 L 22.359375 50.070312 L 19.289062 62.660156 C 19.189062 63.050156 19.339922 63.459219 19.669922 63.699219 C 19.999922 63.939219 20.439297 63.960234 20.779297 63.740234 L 32 56.800781 L 43.220703 63.740234 C 43.380703 63.840234 43.560234 63.890625 43.740234 63.890625 C 43.950234 63.890625 44.160078 63.829219 44.330078 63.699219 C 44.660078 63.459219 44.810937 63.050156 44.710938 62.660156 L 41.640625 50.070312 L 51.660156 41.310547 C 51.960156 41.050547 52.069219 40.63 51.949219 40.25 C 51.829219 39.87 51.489844 39.600547 51.089844 39.560547 L 37.810547 38.349609 L 34.289062 29.699219 C 35.299062 29.219219 36 28.19 36 27 L 36 26.019531 L 49.330078 19.009766 C 50.980078 18.139766 52 16.450078 52 14.580078 L 52 7.8164062 C 53.161 7.4024063 54 6.302 54 5 C 54 3.346 52.654 2 51 2 L 13 2 z M 13 4 L 51 4 C 51.552 4 52 4.449 52 5 C 52 5.551 51.552 6 51 6 L 13 6 C 12.448 6 12 5.551 12 5 C 12 4.449 12.448 4 13 4 z M 14 8 L 22 8 L 22 20.607422 L 15.599609 17.240234 C 14.609609 16.720234 14 15.700078 14 14.580078 L 14 8 z M 24 8 L 40 8 L 40 21.660156 L 35.779297 23.880859 C 35.329297 22.780859 34.25 22 33 22 L 31 22 C 29.75 22 28.670703 22.780859 28.220703 23.880859 L 24 21.660156 L 24 8 z M 42 8 L 50 8 L 50 14.580078 C 50 15.700078 49.390391 16.720234 48.400391 17.240234 L 42 20.607422 L 42 8 z M 31 24 L 33 24 C 33.49 24 33.900469 24.360078 33.980469 24.830078 C 33.990469 24.880078 34 24.94 34 25 L 34 27 C 34 27.03 34.000234 27.050078 33.990234 27.080078 C 33.960234 27.400078 33.789297 27.679844 33.529297 27.839844 C 33.379297 27.939844 33.2 28 33 28 L 32.25 28 L 31.75 28 L 31 28 C 30.8 28 30.620703 27.939844 30.470703 27.839844 C 30.210703 27.679844 30.039766 27.400078 30.009766 27.080078 C 29.999766 27.050078 30 27.03 30 27 L 30 25 C 30 24.94 30.009531 24.880078 30.019531 24.830078 C 30.099531 24.360078 30.51 24 31 24 z M 31.759766 30 L 32.240234 30 L 36.189453 39.669922 C 36.329453 40.019922 36.649297 40.259062 37.029297 40.289062 L 48.580078 41.339844 L 44.892578 44.566406 C 44.730578 44.233406 44.396 44 44 44 C 43.447 44 43 44.448 43 45 L 43 46 C 43 46.067 43.025109 46.126453 43.037109 46.189453 L 39.859375 48.970703 C 39.579375 49.210703 39.460781 49.600937 39.550781 49.960938 L 42.189453 60.759766 L 32.529297 54.779297 C 32.369297 54.679297 32.18 54.630859 32 54.630859 C 31.82 54.630859 31.630703 54.679297 31.470703 54.779297 L 21.810547 60.759766 L 24.449219 49.960938 C 24.539219 49.600938 24.420625 49.210703 24.140625 48.970703 L 19.939453 45.294922 C 19.970453 45.197922 20 45.101 20 45 C 20 44.74 19.890937 44.480781 19.710938 44.300781 C 19.422937 44.005781 18.951078 43.946469 18.580078 44.105469 L 15.419922 41.339844 L 26.970703 40.289062 C 27.350703 40.259062 27.670547 40.019922 27.810547 39.669922 L 31.759766 30 z M 24 44 C 23.447 44 23 44.448 23 45 L 23 47 C 23 47.552 23.447 48 24 48 C 24.553 48 25 47.552 25 47 L 25 45 C 25 44.448 24.553 44 24 44 z M 29 44 C 28.447 44 28 44.448 28 45 L 28 47 C 28 47.552 28.447 48 29 48 C 29.553 48 30 47.552 30 47 L 30 45 C 30 44.448 29.553 44 29 44 z M 34 44 C 33.447 44 33 44.448 33 45 L 33 47 C 33 47.552 33.447 48 34 48 C 34.553 48 35 47.552 35 47 L 35 45 C 35 44.448 34.553 44 34 44 z M 39 44 C 38.447 44 38 44.448 38 45 L 38 47 C 38 47.552 38.447 48 39 48 C 39.553 48 40 47.552 40 47 L 40 45 C 40 44.448 39.553 44 39 44 z M 27 50 C 26.447 50 26 50.448 26 51 C 26 51.552 26.447 52 27 52 L 37 52 C 37.553 52 38 51.552 38 51 C 38 50.448 37.553 50 37 50 L 27 50 z"/></svg>