<svg xmlns="http://www.w3.org/2000/svg" xmlns:xlink="http://www.w3.org/1999/xlink" id="Capa_1" x="0" y="0" version="1.1" viewBox="0 0 512 512" xml:space="preserve" style="enable-background:new 0 0 512 512"><g><g><path fill="$COLOR" d="M426.667,68.267c-47.053,0-85.333,38.281-85.333,85.333c0,4.719,3.823,8.533,8.533,8.533s8.533-3.814,8.533-8.533 c0-37.641,30.626-68.267,68.267-68.267s68.267,30.626,68.267,68.267c0,37.641-30.626,68.267-68.267,68.267H76.8 c-4.71,0-8.533,3.814-8.533,8.533c0,4.719,3.823,8.533,8.533,8.533h349.867c47.053,0,85.333-38.281,85.333-85.333 S473.719,68.267,426.667,68.267z"/></g></g><g><g><path fill="$COLOR" d="M426.667,273.067H110.933c-4.71,0-8.533,3.814-8.533,8.533s3.823,8.533,8.533,8.533h315.733 c37.641,0,68.267,30.626,68.267,68.267c0,37.641-30.626,68.267-68.267,68.267S358.4,396.041,358.4,358.4 c0-4.719-3.823-8.533-8.533-8.533s-8.533,3.814-8.533,8.533c0,47.053,38.281,85.333,85.333,85.333S512,405.453,512,358.4 S473.719,273.067,426.667,273.067z"/></g></g><g><g><path fill="$COLOR" d="M59.733,273.067h-51.2c-4.71,0-8.533,3.814-8.533,8.533s3.823,8.533,8.533,8.533h51.2c4.71,0,8.533-3.814,8.533-8.533 S64.444,273.067,59.733,273.067z"/></g></g><g><g><path fill="$COLOR" d="M51.2,162.133H8.533c-4.71,0-8.533,3.814-8.533,8.533s3.823,8.533,8.533,8.533H51.2c4.71,0,8.533-3.814,8.533-8.533 S55.91,162.133,51.2,162.133z"/></g></g><g><g><path fill="$COLOR" d="M247.467,332.8h-179.2c-4.71,0-8.533,3.814-8.533,8.533c0,4.719,3.823,8.533,8.533,8.533h179.2 c23.526,0,42.667,19.14,42.667,42.667c0,23.526-19.14,42.667-42.667,42.667c-23.526,0-42.667-19.14-42.667-42.667 c0-4.719-3.823-8.533-8.533-8.533s-8.533,3.814-8.533,8.533c0,32.93,26.795,59.733,59.733,59.733s59.733-26.803,59.733-59.733 C307.2,359.603,280.405,332.8,247.467,332.8z"/></g></g><g><g><path fill="$COLOR" d="M247.467,59.733c-32.939,0-59.733,26.803-59.733,59.733c0,4.719,3.823,8.533,8.533,8.533s8.533-3.814,8.533-8.533 c0-23.526,19.14-42.667,42.667-42.667c23.526,0,42.667,19.14,42.667,42.667c0,23.526-19.14,42.667-42.667,42.667H102.4 c-4.71,0-8.533,3.814-8.533,8.533s3.823,8.533,8.533,8.533h145.067c32.939,0,59.733-26.803,59.733-59.733 C307.2,86.536,280.405,59.733,247.467,59.733z"/></g></g></svg>