<svg xmlns="http://www.w3.org/2000/svg" xmlns:xlink="http://www.w3.org/1999/xlink" version="1.1" viewBox="0 0 50 50"><path id="surface1" fill="$COLOR" d="M39 14v2h8v-2zm-18 3v2h8v-2zm18 0v2h8v-2zm-18 3v2h8v-2zm18 0v2h8v-2zM3 23v2h8v-2zm18 0v2h8v-2zm9 0v2h8v-2zm9 0v2h8v-2zM3 26v2h8v-2zm18 0v2h8v-2zm9 0v2h8v-2zm9 0v2h8v-2zM3 29v2h8v-2zm9 0v2h8v-2zm9 0v2h8v-2zm9 0v2h8v-2zm9 0v2h8v-2zM3 32v2h8v-2zm9 0v2h8v-2zm9 0v2h8v-2zm9 0v2h8v-2zm9 0v2h8v-2zM3 35v2h8v-2zm9 0v2h8v-2zm9 0v2h8v-2zm9 0v2h8v-2zm9 0v2h8v-2z"/><metadata><rdf:RDF xmlns:dc="http://purl.org/dc/elements/1.1/" xmlns:rdf="http://www.w3.org/1999/02/22-rdf-syntax-ns#" xmlns:rdfs="http://www.w3.org/2000/01/rdf-schema#"><rdf:Description about="https://iconscout.com/legal#licenses" dc:date="2017-12-09" dc:description="deezer,filled" dc:format="image/svg+xml" dc:language="en" dc:publisher="Iconscout" dc:title="deezer,filled"><dc:creator><rdf:Bag><rdf:li>Icons8</rdf:li></rdf:Bag></dc:creator></rdf:Description></rdf:RDF></metadata></svg>