<?xml version="1.0" encoding="UTF-8"?><svg xmlns="http://www.w3.org/2000/svg" xmlns:xlink="http://www.w3.org/1999/xlink" viewBox="0 0 50 50" version="1.1"><path fill="$COLOR" d="M39 14v2h8v-2zm-18 3v2h8v-2zm18 0v2h8v-2zm-18 3v2h8v-2zm18 0v2h8v-2zM3 23v2h8v-2zm18 0v2h8v-2zm9 0v2h8v-2zm9 0v2h8v-2zM3 26v2h8v-2zm18 0v2h8v-2zm9 0v2h8v-2zm9 0v2h8v-2zM3 29v2h8v-2zm9 0v2h8v-2zm9 0v2h8v-2zm9 0v2h8v-2zm9 0v2h8v-2zM3 32v2h8v-2zm9 0v2h8v-2zm9 0v2h8v-2zm9 0v2h8v-2zm9 0v2h8v-2zM3 35v2h8v-2zm9 0v2h8v-2zm9 0v2h8v-2zm9 0v2h8v-2zm9 0v2h8v-2z" id="surface1"/><metadata><rdf:RDF xmlns:rdf="http://www.w3.org/1999/02/22-rdf-syntax-ns#" xmlns:rdfs="http://www.w3.org/2000/01/rdf-schema#" xmlns:dc="http://purl.org/dc/elements/1.1/"><rdf:Description about="https://iconscout.com/legal#licenses" dc:title="deezer,filled" dc:description="deezer,filled" dc:publisher="Iconscout" dc:date="2017-12-09" dc:format="image/svg+xml" dc:language="en"><dc:creator><rdf:Bag><rdf:li>Icons8</rdf:li></rdf:Bag></dc:creator></rdf:Description></rdf:RDF></metadata></svg>