<svg xmlns="http://www.w3.org/2000/svg" width="128" height="128"><g><path id="svg_1" fill="$COLOR" stroke="null" d="m91.681397,76.657254c0.51126,-4.216149 0.894704,-8.432298 0.894704,-12.776209c0,-4.343911 -0.383445,-8.56006 -0.894704,-12.776209l21.600715,0c1.022519,4.088387 1.661593,8.368417 1.661593,12.776209c0,4.407792 -0.639074,8.687822 -1.661593,12.776209m-32.912331,35.517861c3.834446,-7.090796 6.774189,-14.756521 8.819227,-22.741652l18.852695,0c-6.135114,10.540372 -15.912952,18.717146 -27.671921,22.741652m-1.597686,-35.517861l-29.908682,0c-0.639074,-4.216149 -1.022519,-8.432298 -1.022519,-12.776209c0,-4.343911 0.383445,-8.623941 1.022519,-12.776209l29.908682,0c0.575167,4.152268 1.022519,8.432298 1.022519,12.776209c0,4.343911 -0.447352,8.56006 -1.022519,12.776209m-14.954341,38.073103c-5.304317,-7.665725 -9.586116,-16.161904 -12.206321,-25.296894l24.412642,0c-2.620205,9.134989 -6.902003,17.631168 -12.206321,25.296894m-25.562976,-76.40173l-18.660972,0c6.071207,-10.604253 15.912952,-18.781027 27.608014,-22.741652c-3.834446,7.090796 -6.710281,14.756521 -8.947042,22.741652m-18.660972,51.104836l18.660972,0c2.23676,7.985131 5.112595,15.650856 8.947042,22.741652c-11.695061,-4.024506 -21.536807,-12.20128 -27.608014,-22.741652m-5.24041,-12.776209c-1.022519,-4.088387 -1.661593,-8.368417 -1.661593,-12.776209c0,-4.407792 0.639074,-8.687822 1.661593,-12.776209l21.600715,0c-0.51126,4.216149 -0.894704,8.432298 -0.894704,12.776209c0,4.343911 0.383445,8.56006 0.894704,12.776209m27.863644,-63.689402c5.304317,7.665725 9.586116,16.225785 12.206321,25.360775l-24.412642,0c2.620205,-9.134989 6.902003,-17.69505 12.206321,-25.360775m44.223948,25.360775l-18.852695,0c-2.045038,-7.985131 -4.98478,-15.650856 -8.819227,-22.741652c11.758969,4.024506 21.536807,12.137399 27.671921,22.741652m-44.223948,-38.328627c-35.340814,0 -63.90744,28.74647 -63.90744,63.881045a63.90744,63.881045 0 0 0 63.90744,63.881045a63.90744,63.881045 0 0 0 63.90744,-63.881045a63.90744,63.881045 0 0 0 -63.90744,-63.881045z"/></g></svg>