<svg xmlns="http://www.w3.org/2000/svg" width="200" height="200"><g><title>Layer 1</title><g id="svg_1" fill="$COLOR"><path id="svg_2" d="m12.761993,101.579003c-0.413,0 -0.752,0.332 -0.804,0.79l-1.903,17.342l1.903,16.959c0.052,0.45 0.391,0.782 0.804,0.782c0.406,0 0.738,-0.324 0.804,-0.782l2.154,-16.959l-2.154,-17.35c-0.067,-0.457 -0.399,-0.782 -0.804,-0.782zm-7.141,6.647c-0.406,0 -0.723,0.31 -0.775,0.752l-1.416,10.733l1.416,10.542c0.052,0.441 0.369,0.752 0.775,0.752c0.391,0 0.708,-0.311 0.774,-0.752l1.667,-10.542l-1.667,-10.733c-0.066,-0.443 -0.383,-0.752 -0.774,-0.752zm14.724,-10.047c-0.509,0 -0.915,0.398 -0.967,0.951l-1.8,20.581l1.8,19.821c0.052,0.554 0.458,0.951 0.967,0.951c0.501,0 0.907,-0.397 0.974,-0.943l2.043,-19.829l-2.043,-20.581c-0.067,-0.553 -0.473,-0.951 -0.974,-0.951zm7.649,-0.723c-0.598,0 -1.084,0.479 -1.129,1.114l-1.704,21.142l1.704,20.456c0.044,0.634 0.531,1.112 1.129,1.112s1.084,-0.479 1.136,-1.112l1.934,-20.456l-1.934,-21.149c-0.051,-0.628 -0.538,-1.107 -1.136,-1.107zm9.007,2.633c-0.044,-0.723 -0.604,-1.269 -1.291,-1.269c-0.701,0 -1.254,0.546 -1.298,1.284l-1.608,19.607l1.608,20.625c0.044,0.729 0.598,1.284 1.298,1.284c0.687,0 1.247,-0.555 1.291,-1.284l1.83,-20.625l-1.83,-19.622zm6.485,-13.728c-0.782,0 -1.424,0.634 -1.461,1.453l-1.512,31.912l1.512,20.617c0.037,0.805 0.679,1.446 1.461,1.446c0.767,0 1.409,-0.644 1.46,-1.454l0,0.008l1.704,-20.617l-1.704,-31.919c-0.052,-0.811 -0.693,-1.446 -1.46,-1.446zm7.715,-7.355c-0.878,0 -1.593,0.716 -1.63,1.616l-1.409,39.215l1.409,20.492c0.037,0.893 0.752,1.607 1.63,1.607c0.863,0 1.586,-0.715 1.623,-1.615l0,0.008l1.601,-20.492l-1.601,-39.215c-0.037,-0.9 -0.759,-1.616 -1.623,-1.616zm8.019,-3.54c-0.974,0 -1.763,0.782 -1.792,1.785l-1.321,42.482l1.321,20.277c0.029,0.988 0.819,1.771 1.792,1.771c0.959,0 1.748,-0.782 1.785,-1.777l0,0.016l1.482,-20.287l-1.482,-42.482c-0.037,-1.003 -0.826,-1.785 -1.785,-1.785zm9.914,0.354c-0.037,-1.092 -0.893,-1.948 -1.955,-1.948c-1.07,0 -1.933,0.856 -1.955,1.948l-1.224,43.914l1.224,20.16a1.959,1.959 0 0 0 1.955,1.934c1.062,0 1.918,-0.855 1.955,-1.947l1.372,-20.146l-1.372,-43.915zm0,64.059l0,0.015l0,-0.015zm6.064,-65.048c-1.158,0 -2.095,0.93 -2.117,2.11l-1.122,42.792l1.122,19.969c0.022,1.173 0.959,2.104 2.117,2.104s2.088,-0.931 2.125,-2.117l0,0.021l1.254,-19.976l-1.254,-42.792c-0.038,-1.181 -0.967,-2.111 -2.125,-2.111zm8.085,1.402c-1.254,0 -2.257,1.003 -2.287,2.279l-1.018,41.227l1.024,19.837c0.022,1.262 1.025,2.265 2.279,2.265s2.265,-1.003 2.287,-2.279l0,0.016l1.15,-19.836l-1.15,-41.235a2.288,2.288 0 0 0 -2.285,-2.274zm9.501,-7.584a2.451,2.451 0 0 0 -1.35,-0.413c-0.487,0 -0.944,0.147 -1.328,0.398a2.477,2.477 0 0 0 -1.122,2.043l-0.015,0.465l-0.915,48.589c0,0.029 0.929,19.719 0.929,19.719l0,0.08c0.03,0.555 0.236,1.062 0.576,1.461a2.433,2.433 0 0 0 1.874,0.895c0.664,0 1.269,-0.281 1.711,-0.724s0.723,-1.048 0.738,-1.72l0.103,-1.955l0.93,-17.748l-1.033,-49.062a2.512,2.512 0 0 0 -1.098,-2.028zm1.099,70.802l0,-0.009l0,0.009l0,-0.014l0,0.005l0,0.009zm6.992,-75.449a2.557,2.557 0 0 0 -2.979,0.222a2.627,2.627 0 0 0 -0.966,2.006l-0.007,0.273l-1.068,53.245l0.546,9.841l0.531,9.582c0.015,1.416 1.188,2.59 2.61,2.59c1.425,0 2.598,-1.174 2.619,-2.611l0,0.021l1.158,-19.423l-1.158,-53.518a2.66,2.66 0 0 0 -1.286,-2.228zm71.94,30.415c-3.254,0 -6.359,0.656 -9.191,1.844c-1.889,-21.407 -19.844,-38.197 -41.737,-38.197a42.468,42.468 0 0 0 -15.203,2.833c-1.793,0.693 -2.265,1.409 -2.286,2.796l0,75.397c0.021,1.453 1.148,2.582 2.566,2.722c0.059,0.008 65.852,0 65.852,0c13.123,0 23.754,-10.512 23.754,-23.635c-0.001,-13.123 -10.632,-23.76 -23.755,-23.76z"/></g></g></svg>