<?xml version="1.0" encoding="UTF-8" standalone="no"?>

<svg
        xmlns:dc="http://purl.org/dc/elements/1.1/"
        xmlns:cc="http://creativecommons.org/ns#"
        xmlns:rdf="http://www.w3.org/1999/02/22-rdf-syntax-ns#"
        xmlns:svg="http://www.w3.org/2000/svg"
        xmlns="http://www.w3.org/2000/svg"
        xmlns:sodipodi="http://sodipodi.sourceforge.net/DTD/sodipodi-0.dtd"
        xmlns:inkscape="http://www.inkscape.org/namespaces/inkscape"
        version="1.1"
        id="Layer_1"
        x="0px"
        y="0px"
        viewBox="0 0 71.412065 50"
        xml:space="preserve"
        inkscape:version="0.91 r13725"
        sodipodi:docname="YouTube_light_icon (2017).svg"
        width="71.412064"
        height="71.412064"><metadata
     id="metadata33"><rdf:RDF><cc:Work
         rdf:about=""><dc:format>image/svg+xml</dc:format><dc:type
        rdf:resource="http://purl.org/dc/dcmitype/StillImage" /><dc:title></dc:title></cc:Work></rdf:RDF></metadata><defs
        id="defs31" /><sodipodi:namedview
        borderopacity="1"
        objecttolerance="10"
        gridtolerance="10"
        guidetolerance="10"
        inkscape:pageopacity="0"
        inkscape:pageshadow="2"
        inkscape:window-width="1366"
        inkscape:window-height="715"
        id="namedview29"
        showgrid="false"
        fit-margin-top="0"
        fit-margin-left="0"
        fit-margin-right="0"
        fit-margin-bottom="0"
        inkscape:zoom="5.4355702"
        inkscape:cx="30.091613"
        inkscape:cy="15.29613"
        inkscape:window-x="-8"
        inkscape:window-y="-8"
        inkscape:window-maximized="1"
        inkscape:current-layer="Layer_1" /><style
        type="text/css"
        id="style3">
</style><g
        id="g5"
        transform="scale(0.58823529,0.58823529)"><path
       style="fill:$COLOR;fill-opacity:1"
       d="M 35.705078 0 C 35.705078 0 13.35386 0.0001149 7.765625 1.4707031 C 4.765625 2.2942325 2.2942325 4.7653952 1.4707031 7.8242188 C 0.0001149 13.412454 -2.9605947e-016 25 0 25 C 0 25 0.0001149 36.64637 1.4707031 42.175781 C 2.2942325 45.234605 4.7068015 47.647174 7.765625 48.470703 C 13.412684 50.000115 35.705078 50 35.705078 50 C 35.705078 50 58.058249 49.999885 63.646484 48.529297 C 66.705308 47.705767 69.117877 45.293199 69.941406 42.234375 C 71.411994 36.64614 71.412109 25.058594 71.412109 25.058594 C 71.412109 25.058594 71.470818 13.412454 69.941406 7.8242188 C 69.117877 4.7653952 66.705308 2.3528263 63.646484 1.5292969 C 58.058249 -0.000114879 35.705078 2.9605947e-016 35.705078 0 z M 28.587891 14.294922 L 47.175781 25 L 28.587891 35.705078 L 28.587891 14.294922 z "
       transform="scale(1.7,1.7)"
       id="path7" /></g></svg>