<svg xmlns="http://www.w3.org/2000/svg" xmlns:xlink="http://www.w3.org/1999/xlink" id="Capa_1" x="0" y="0" version="1.1" viewBox="0 0 512 512" xml:space="preserve" style="enable-background:new 0 0 512 512"><g><g><path fill="$COLOR" d="M353.109,477.09C263.014,440.124,204.8,353.34,204.8,256S263.014,71.876,353.109,34.91c3.2-1.314,5.291-4.429,5.291-7.893 s-2.091-6.579-5.291-7.902C322.202,6.434,289.527,0,256,0C114.842,0,0,114.842,0,256s114.842,256,256,256 c33.527,0,66.202-6.434,97.109-19.123c3.2-1.314,5.291-4.437,5.291-7.893C358.4,481.528,356.309,478.404,353.109,477.09z M256,494.933C124.254,494.933,17.067,387.746,17.067,256S124.254,17.067,256,17.067c24.414,0,48.341,3.652,71.373,10.88 C241.894,71.458,187.733,158.822,187.733,256s54.161,184.542,139.639,228.053C304.341,491.281,280.414,494.933,256,494.933z"/></g></g><g><g><path fill="$COLOR" d="M256,34.133h-0.009c-31.334,0.034-62.02,6.187-88.73,17.766c-4.326,1.877-6.306,6.904-4.429,11.221 c1.399,3.217,4.54,5.146,7.834,5.146c1.135,0,2.295-0.222,3.396-0.708c24.585-10.667,52.924-16.324,81.946-16.358 c4.71,0,8.533-3.831,8.525-8.542C264.525,37.948,260.71,34.133,256,34.133z"/></g></g><g><g><path fill="$COLOR" d="M134.793,80.179c-2.842-3.755-8.201-4.48-11.955-1.638c-26.385,20.011-49.212,47.104-64.273,76.297 c-2.159,4.19-0.521,9.335,3.669,11.494c1.254,0.64,2.586,0.947,3.908,0.947c3.098,0,6.076-1.69,7.586-4.625 c13.918-26.965,35.021-52.019,59.418-70.519C136.909,89.284,137.643,83.934,134.793,80.179z"/></g></g><g><g><path fill="$COLOR" d="M460.8,406.067l-37.666,37.666l37.666,37.666l37.666-37.666L460.8,406.067z M447.266,443.733L460.8,430.2l13.534,13.534 L460.8,457.267L447.266,443.733z"/></g></g><g><g><path fill="$COLOR" d="M460.8,392.533c-4.71,0-8.533,3.823-8.533,8.533v17.067c0,4.71,3.823,8.533,8.533,8.533s8.533-3.823,8.533-8.533v-17.067 C469.333,396.356,465.51,392.533,460.8,392.533z"/></g></g><g><g><path fill="$COLOR" d="M503.467,435.2H486.4c-4.71,0-8.533,3.823-8.533,8.533s3.823,8.533,8.533,8.533h17.067c4.71,0,8.533-3.823,8.533-8.533 S508.177,435.2,503.467,435.2z"/></g></g><g><g><path fill="$COLOR" d="M460.8,460.8c-4.71,0-8.533,3.823-8.533,8.533V486.4c0,4.71,3.823,8.533,8.533,8.533s8.533-3.823,8.533-8.533v-17.067 C469.333,464.623,465.51,460.8,460.8,460.8z"/></g></g><g><g><path fill="$COLOR" d="M435.2,435.2h-17.067c-4.71,0-8.533,3.823-8.533,8.533s3.823,8.533,8.533,8.533H435.2c4.71,0,8.533-3.823,8.533-8.533 S439.91,435.2,435.2,435.2z"/></g></g><g><g><path fill="$COLOR" d="M435.2,102.4c-18.825,0-34.133-15.309-34.133-34.133c0-4.71-3.823-8.533-8.533-8.533c-4.71,0-8.533,3.823-8.533,8.533 c0,18.825-15.309,34.133-34.133,34.133c-4.71,0-8.533,3.823-8.533,8.533s3.823,8.533,8.533,8.533 c18.825,0,34.133,15.309,34.133,34.133c0,4.71,3.823,8.533,8.533,8.533c4.71,0,8.533-3.823,8.533-8.533 c0-18.825,15.309-34.133,34.133-34.133c4.71,0,8.533-3.823,8.533-8.533S439.91,102.4,435.2,102.4z M392.533,125.329 c-3.797-5.7-8.695-10.607-14.396-14.396c5.7-3.789,10.607-8.695,14.396-14.396c3.797,5.7,8.695,10.607,14.396,14.396 C401.229,114.731,396.322,119.629,392.533,125.329z"/></g></g><g><g><path fill="$COLOR" d="M392.073,270.302c-1.05-3.081-3.763-5.299-6.997-5.709l-36.727-4.685l-16.435-33.289c-2.867-5.828-12.424-5.828-15.3,0 l-16.435,33.289l-36.727,4.685c-3.234,0.41-5.948,2.628-6.997,5.709c-1.05,3.089-0.256,6.494,2.048,8.798l26.965,26.948 l-3.814,34.338c-0.367,3.302,1.22,6.519,4.062,8.243c2.85,1.732,6.434,1.647,9.19-0.222l29.363-19.789l29.363,19.789 c1.442,0.973,3.106,1.459,4.77,1.459c1.527,0,3.055-0.41,4.412-1.237c2.842-1.724,4.429-4.941,4.062-8.243l-3.814-34.338 l26.965-26.948C392.337,276.796,393.122,273.382,392.073,270.302z M348.1,296.875c-1.835,1.835-2.731,4.403-2.449,6.98 l2.236,20.096l-18.85-12.698c-1.442-0.973-3.106-1.459-4.77-1.459s-3.328,0.486-4.762,1.459l-18.85,12.698l2.236-20.096 c0.29-2.577-0.614-5.146-2.449-6.98L282.88,279.33l24.013-3.063c2.833-0.367,5.308-2.125,6.571-4.693l10.803-21.897l10.812,21.897 c1.263,2.569,3.729,4.335,6.571,4.693l24.013,3.063L348.1,296.875z"/></g></g></svg>