<svg xmlns="http://www.w3.org/2000/svg" xmlns:xlink="http://www.w3.org/1999/xlink" id="Capa_1" x="0" y="0" version="1.1" viewBox="0 0 512.006 512.006" xml:space="preserve" style="enable-background:new 0 0 512.006 512.006"><g><g><path fill="$COLOR" d="M256.001,145.079c-61.166,0-110.931,49.766-110.931,110.931s49.766,110.931,110.931,110.931 s110.931-49.766,110.931-110.931S317.167,145.079,256.001,145.079z M256.001,349.876c-51.754,0-93.865-42.111-93.865-93.865 c0-51.754,42.111-93.865,93.865-93.865c51.762,0,93.865,42.111,93.865,93.865S307.755,349.876,256.001,349.876z"/></g></g><g><g><path fill="$COLOR" d="M390.032,121.98c-3.328-3.336-8.738-3.336-12.066,0l-25.6,25.6c-3.336,3.336-3.336,8.729,0,12.066 c1.664,1.664,3.849,2.5,6.033,2.5c2.185,0,4.369-0.836,6.033-2.5l25.6-25.6C393.369,130.709,393.369,125.316,390.032,121.98z"/></g></g><g><g><path fill="$COLOR" d="M159.636,147.579l-25.6-25.6c-3.328-3.336-8.738-3.336-12.066,0c-3.336,3.336-3.336,8.729,0,12.066l25.6,25.6 c1.664,1.664,3.848,2.5,6.033,2.5s4.369-0.836,6.033-2.5C162.972,156.309,162.972,150.916,159.636,147.579z"/></g></g><g><g><path fill="$COLOR" d="M138.201,306.075c-1.852-4.335-6.852-6.366-11.196-4.514L24.914,344.943c-4.335,1.852-6.357,6.861-4.514,11.196 c1.382,3.243,4.54,5.197,7.859,5.197c1.109,0,2.244-0.222,3.328-0.683l102.1-43.383 C138.021,315.418,140.044,310.41,138.201,306.075z"/></g></g><g><g><path fill="$COLOR" d="M360.644,480.425l-43.383-102.091c-1.852-4.335-6.852-6.357-11.196-4.514c-4.335,1.852-6.357,6.861-4.514,11.196 l43.383,102.091c1.382,3.243,4.54,5.197,7.859,5.197c1.109,0,2.244-0.222,3.336-0.683 C360.465,489.769,362.487,484.76,360.644,480.425z"/></g></g><g><g><path fill="$COLOR" d="M212.439,124.19L152.707,4.725c-2.108-4.215-7.245-5.939-11.452-3.814c-4.215,2.108-5.922,7.236-3.814,11.452 l59.732,119.465c1.493,2.995,4.505,4.719,7.637,4.719c1.28,0,2.586-0.29,3.814-0.905 C212.84,133.534,214.547,128.405,212.439,124.19z"/></g></g><g><g><path fill="$COLOR" d="M205.954,373.82c-4.343-1.852-9.352,0.179-11.196,4.514l-43.374,102.1c-1.843,4.343,0.179,9.352,4.514,11.196 c1.092,0.461,2.227,0.683,3.336,0.683c3.319,0,6.477-1.954,7.859-5.197l43.374-102.1 C212.311,380.672,210.289,375.663,205.954,373.82z"/></g></g><g><g><path fill="$COLOR" d="M487.106,344.918l-102.1-43.374c-4.352-1.843-9.352,0.171-11.196,4.514c-1.843,4.343,0.179,9.352,4.514,11.196 l102.1,43.374c1.092,0.461,2.227,0.683,3.336,0.683c3.319,0,6.477-1.946,7.859-5.197 C493.463,351.77,491.441,346.761,487.106,344.918z"/></g></g><g><g><path fill="$COLOR" d="M123.046,188.53L12.114,137.331c-4.284-1.988-9.352-0.102-11.324,4.173c-1.971,4.275-0.102,9.352,4.173,11.324 l110.932,51.199c1.152,0.538,2.372,0.785,3.567,0.785c3.234,0,6.315-1.835,7.757-4.958 C129.189,195.578,127.321,190.501,123.046,188.53z"/></g></g><g><g><path fill="$COLOR" d="M370.747,0.919c-4.207-2.116-9.344-0.41-11.452,3.814l-59.732,119.465c-2.108,4.215-0.401,9.344,3.814,11.452 c1.229,0.606,2.534,0.896,3.814,0.896c3.132,0,6.144-1.724,7.637-4.71l59.732-119.465C376.669,8.155,374.962,3.027,370.747,0.919z"/></g></g><g><g><path fill="$COLOR" d="M511.212,141.504c-1.98-4.275-7.048-6.161-11.324-4.173L388.957,188.53c-4.275,1.971-6.144,7.048-4.173,11.324 c1.442,3.123,4.531,4.958,7.757,4.958c1.195,0,2.415-0.247,3.567-0.785l110.931-51.199 C511.314,150.856,513.192,145.779,511.212,141.504z"/></g></g><g><g><path fill="$COLOR" d="M256.001,435.207c-4.71,0-8.533,3.823-8.533,8.533v59.732c0,4.71,3.823,8.533,8.533,8.533s8.533-3.823,8.533-8.533 v-59.732C264.534,439.03,260.712,435.207,256.001,435.207z"/></g></g><g><g><path fill="$COLOR" d="M256.001,384.008c-4.71,0-8.533,3.823-8.533,8.533v17.066c0,4.71,3.823,8.533,8.533,8.533s8.533-3.823,8.533-8.533 v-17.066C264.534,387.831,260.712,384.008,256.001,384.008z"/></g></g><g><g><path fill="$COLOR" d="M256.001,0.015c-4.71,0-8.533,3.823-8.533,8.533V68.28c0,4.71,3.823,8.533,8.533,8.533s8.533-3.823,8.533-8.533V8.548 C264.534,3.838,260.712,0.015,256.001,0.015z"/></g></g><g><g><path fill="$COLOR" d="M256.001,93.88c-4.71,0-8.533,3.823-8.533,8.533v17.066c0,4.71,3.823,8.533,8.533,8.533s8.533-3.823,8.533-8.533v-17.066 C264.534,97.703,260.712,93.88,256.001,93.88z"/></g></g><g><g><path fill="$COLOR" d="M68.271,247.477H8.539c-4.71,0-8.533,3.823-8.533,8.533s3.823,8.533,8.533,8.533h59.732c4.71,0,8.533-3.823,8.533-8.533 S72.981,247.477,68.271,247.477z"/></g></g><g><g><path fill="$COLOR" d="M119.47,247.477h-17.066c-4.71,0-8.533,3.823-8.533,8.533s3.823,8.533,8.533,8.533h17.066c4.71,0,8.533-3.823,8.533-8.533 S124.181,247.477,119.47,247.477z"/></g></g><g><g><path fill="$COLOR" d="M503.464,247.477h-59.732c-4.71,0-8.533,3.823-8.533,8.533s3.823,8.533,8.533,8.533h59.732 c4.71,0,8.533-3.823,8.533-8.533S508.174,247.477,503.464,247.477z"/></g></g><g><g><path fill="$COLOR" d="M409.599,247.477h-17.066c-4.71,0-8.533,3.823-8.533,8.533s3.823,8.533,8.533,8.533h17.066 c4.71,0,8.533-3.823,8.533-8.533S414.309,247.477,409.599,247.477z"/></g></g><g><g><path fill="$COLOR" d="M159.636,352.376c-3.328-3.336-8.738-3.336-12.066,0l-25.6,25.6c-3.336,3.336-3.336,8.729,0,12.066 c1.664,1.664,3.848,2.5,6.033,2.5c2.185,0,4.369-0.836,6.033-2.5l25.6-25.6C162.972,361.105,162.972,355.712,159.636,352.376z"/></g></g><g><g><path fill="$COLOR" d="M390.032,377.975l-25.6-25.6c-3.328-3.336-8.738-3.336-12.066,0c-3.336,3.336-3.336,8.729,0,12.066l25.6,25.6 c1.664,1.664,3.848,2.5,6.033,2.5s4.369-0.836,6.033-2.5C393.369,386.705,393.369,381.312,390.032,377.975z"/></g></g><g><g><path fill="$COLOR" d="M256.001,179.212c-42.35,0-76.799,34.457-76.799,76.799c0,4.71,3.823,8.533,8.533,8.533c4.71,0,8.533-3.823,8.533-8.533 c0-32.938,26.794-59.732,59.732-59.732c4.71,0,8.533-3.823,8.533-8.533C264.534,183.035,260.712,179.212,256.001,179.212z"/></g></g></svg>