<svg xmlns="http://www.w3.org/2000/svg" xmlns:xlink="http://www.w3.org/1999/xlink" id="Capa_1" x="0" y="0" version="1.1" viewBox="0 0 512 512" xml:space="preserve" style="enable-background:new 0 0 512 512"><g><g><path fill="$COLOR" d="M433.886,199.424c0.87-5.385,1.314-10.726,1.314-15.957c0-56.465-45.935-102.4-102.4-102.4 c-44.134,0-82.372,22.349-98.347,56.508c-12.911-5.308-24.806-5.308-38.187-5.308c-53.7,0-97.877,41.549-102.076,94.191 C41.557,230.656,0,274.833,0,328.533c0,56.465,45.935,102.4,102.4,102.4h290.133c65.877,0,119.467-53.589,119.467-119.467 C512,261.572,480.247,216.576,433.886,199.424z M392.533,413.867H102.4c-47.053,0-85.333-38.281-85.333-85.333 S55.347,243.2,102.4,243.2c4.71,0,8.533-3.814,8.533-8.533c0-47.053,38.281-85.333,85.333-85.333 c16.99,0,26.402,0.324,38.34,7.347c2.219,1.306,4.907,1.527,7.322,0.64c2.415-0.904,4.292-2.85,5.103-5.291 c10.573-31.727,45.841-53.897,85.768-53.897c47.053,0,85.333,38.281,85.333,85.333c0,6.391-0.802,13.022-2.389,19.712 c-1.05,4.403,1.536,8.866,5.879,10.146c43.17,12.774,73.31,53.137,73.31,98.142C494.933,367.932,448.998,413.867,392.533,413.867z"/></g></g><g><g><path fill="$COLOR" d="M148.949,235.597c-12.638-6.451-27.435-9.464-46.549-9.464c-4.71,0-8.533,3.814-8.533,8.533 c0,4.719,3.823,8.533,8.533,8.533c16.316,0,28.638,2.415,38.784,7.603c1.237,0.631,2.569,0.93,3.874,0.93 c3.106,0,6.101-1.698,7.603-4.651C154.812,242.884,153.148,237.739,148.949,235.597z"/></g></g></svg>