<svg xmlns="http://www.w3.org/2000/svg" xmlns:xlink="http://www.w3.org/1999/xlink" id="Capa_1" x="0" y="0" version="1.1" viewBox="0 0 512 512" xml:space="preserve" style="enable-background:new 0 0 512 512"><g><g><path fill="$COLOR" d="M433.886,280.491c0.87-5.385,1.314-10.726,1.314-15.957c0-56.465-45.935-102.4-102.4-102.4 c-44.134,0-82.372,22.349-98.347,56.508c-12.911-5.308-24.806-5.308-38.187-5.308c-53.7,0-97.877,41.549-102.076,94.191 C41.557,311.723,0,355.9,0,409.6C0,466.065,45.935,512,102.4,512h290.133C458.411,512,512,458.411,512,392.533 C512,342.639,480.247,297.643,433.886,280.491z M392.533,494.933H102.4c-47.053,0-85.333-38.281-85.333-85.333 s38.281-85.333,85.333-85.333c4.71,0,8.533-3.814,8.533-8.533c0-47.053,38.281-85.333,85.333-85.333 c16.99,0,26.402,0.324,38.34,7.347c2.219,1.306,4.907,1.527,7.322,0.64c2.415-0.905,4.292-2.85,5.103-5.291 C257.604,201.37,292.873,179.2,332.8,179.2c47.053,0,85.333,38.281,85.333,85.333c0,6.391-0.802,13.022-2.389,19.712 c-1.05,4.403,1.536,8.866,5.879,10.146c43.17,12.774,73.31,53.137,73.31,98.142C494.933,448.998,448.998,494.933,392.533,494.933z"/></g></g><g><g><path fill="$COLOR" d="M148.949,316.664c-12.638-6.451-27.435-9.464-46.549-9.464c-4.71,0-8.533,3.814-8.533,8.533s3.823,8.533,8.533,8.533 c16.316,0,28.638,2.415,38.784,7.603c1.237,0.631,2.569,0.93,3.874,0.93c3.106,0,6.101-1.698,7.603-4.651 C154.812,323.951,153.148,318.805,148.949,316.664z"/></g></g><g><g><path fill="$COLOR" d="M256,0C133.666,0,34.133,99.524,34.133,221.867c0,36.267,9.088,72.405,26.291,104.516 c1.527,2.842,4.463,4.497,7.526,4.497c1.041,0,2.108-0.188,3.132-0.597c10.095-3.994,20.634-6.016,31.317-6.016 c4.71,0,8.533-3.814,8.533-8.533c0-47.053,38.281-85.333,85.333-85.333c16.99,0,26.402,0.324,38.34,7.347 c2.219,1.306,4.907,1.527,7.322,0.64c2.415-0.905,4.292-2.85,5.103-5.291C257.604,201.37,292.873,179.2,332.8,179.2 c47.053,0,85.333,38.281,85.333,85.333c0,0.521-0.051,1.016-0.102,1.519l-0.128,2.705l0.111,1.766 c0.06,0.845,0.119,1.681,0.119,2.543c0,3.669-0.341,7.595-1.067,12.365c-0.631,4.164,1.877,8.175,5.905,9.429 c9.387,2.918,18.313,7.194,26.539,12.706c2.142,1.442,4.813,1.835,7.287,1.067c2.466-0.768,4.446-2.603,5.402-5 c10.394-26.163,15.667-53.675,15.667-81.766C477.867,99.524,378.334,0,256,0z M449.852,287.829 c-4.847-2.662-9.873-4.975-15.027-6.929c0.256-2.748,0.375-5.325,0.375-7.834c0-1.246-0.077-2.466-0.154-3.678l-0.085-0.683 l0.085-1.203c0.077-0.99,0.154-1.971,0.154-2.97c0-56.465-45.935-102.4-102.4-102.4c-44.134,0-82.372,22.349-98.347,56.508 c-12.911-5.308-24.806-5.308-38.187-5.308c-53.7,0-97.886,41.557-102.076,94.199c-7.467,0.606-14.848,2.039-22.059,4.292 C58.24,283.605,51.2,253.38,51.2,221.867c0-112.922,91.87-204.8,204.8-204.8s204.8,91.878,204.8,204.8 C460.8,244.412,457.122,266.547,449.852,287.829z"/></g></g><g><g><path fill="$COLOR" d="M235.93,45.073c-0.674-4.668-5.001-7.97-9.668-7.219c-45.184,6.545-86.11,29.568-115.226,64.845 c-2.995,3.635-2.483,9.011,1.152,12.015c1.587,1.314,3.516,1.954,5.427,1.954c2.458,0,4.898-1.058,6.588-3.098 c26.411-32,63.531-52.89,104.508-58.829C233.37,54.067,236.604,49.741,235.93,45.073z"/></g></g><g><g><path fill="$COLOR" d="M97.57,137.378c-4.25-2.039-9.344-0.265-11.392,3.977C74.3,165.99,68.275,193.075,68.267,221.867 c0,4.71,3.823,8.533,8.533,8.533s8.533-3.814,8.533-8.533c0.009-26.197,5.461-50.79,16.213-73.097 C103.595,144.521,101.82,139.418,97.57,137.378z"/></g></g></svg>