<svg xmlns="http://www.w3.org/2000/svg" xmlns:xlink="http://www.w3.org/1999/xlink" id="Capa_1" x="0" y="0" version="1.1" viewBox="0 0 512 512" xml:space="preserve" style="enable-background:new 0 0 512 512"><g><g><path fill="$COLOR" d="M187.733,8.533c-4.71,0-8.533,3.823-8.533,8.533v25.6c0,4.71,3.823,8.533,8.533,8.533s8.533-3.823,8.533-8.533v-25.6 C196.267,12.356,192.444,8.533,187.733,8.533z"/></g></g><g><g><path fill="$COLOR" d="M42.667,179.2h-25.6c-4.71,0-8.533,3.823-8.533,8.533s3.823,8.533,8.533,8.533h25.6c4.71,0,8.533-3.823,8.533-8.533 S47.377,179.2,42.667,179.2z"/></g></g><g><g><path fill="$COLOR" d="M91.187,79.121L74.3,62.234c-3.337-3.337-8.73-3.337-12.066,0c-3.336,3.337-3.336,8.73,0,12.066l16.888,16.887 c1.664,1.664,3.849,2.5,6.033,2.5c2.185,0,4.369-0.836,6.033-2.5C94.524,87.851,94.524,82.458,91.187,79.121z"/></g></g><g><g><path fill="$COLOR" d="M313.233,62.234c-3.337-3.337-8.73-3.337-12.066,0l-16.887,16.887c-3.337,3.337-3.337,8.73,0,12.066 c1.664,1.664,3.849,2.5,6.033,2.5c2.185,0,4.369-0.836,6.033-2.5L313.233,74.3C316.57,70.963,316.57,65.57,313.233,62.234z"/></g></g><g><g><path fill="$COLOR" d="M443.085,219.716c0.529-3.703,0.794-7.373,0.794-10.982c0-44.518-36.497-80.734-81.357-80.734 c-34.278,0-64.094,16.922-77.235,42.974c-9.677-3.584-18.662-3.584-28.698-3.584c-43.631,0-80.922,32.188-85.453,71.953 c-39.714,4.011-68.736,37.487-68.736,80.99c0,44.518,36.497,80.734,81.365,80.734h225.101c52.164,0,94.601-42.112,94.601-93.867 C503.467,268.518,478.993,233.591,443.085,219.716z M408.866,384H183.765c-35.456,0-64.299-28.561-64.299-63.667 c0-36.676,25.677-64.333,59.733-64.333c4.71,0,8.533-3.823,8.533-8.533c0-33.57,32.179-63.019,68.855-63.019 c12.851,0,19.968,0.247,28.8,5.41c2.21,1.297,4.898,1.528,7.296,0.623c2.406-0.905,4.275-2.842,5.094-5.274 c7.936-23.629,34.56-40.132,64.742-40.132c35.447,0,64.29,28.561,64.29,63.667c0,4.753-0.597,9.702-1.792,14.694 c-1.05,4.412,1.536,8.883,5.897,10.163c32.666,9.591,55.484,39.851,55.484,73.6C486.4,349.542,451.618,384,408.866,384z"/></g></g><g><g><path fill="$COLOR" d="M217.216,248.405c-11.938-6.11-25.438-9.472-38.016-9.472c-4.71,0-8.533,3.823-8.533,8.533S174.49,256,179.2,256 c9.779,0,20.804,2.773,30.259,7.595c1.237,0.64,2.569,0.939,3.874,0.939c3.098,0,6.093-1.698,7.595-4.651 C223.078,255.693,221.414,250.547,217.216,248.405z"/></g></g><g><g><path fill="$COLOR" d="M305.263,166.682c-10.155-57.028-59.58-98.415-117.53-98.415c-65.877,0-119.467,53.589-119.467,119.467 c0,38.315,18.68,74.59,49.971,97.033c1.459,1.058,3.2,1.604,4.975,1.604c0.529,0,1.05-0.051,1.587-0.136 c2.287-0.427,4.301-1.775,5.572-3.729c9.438-14.49,23.893-23.689,40.73-25.899c3.516-0.461,6.383-3.055,7.194-6.511 c2.483-10.564,8.021-20.693,16.017-29.278c0.452-0.478,0.836-1.007,1.161-1.57c12.134-21.137,36.122-34.79,61.116-34.79 c12.851,0,19.968,0.247,28.8,5.402c2.21,1.289,4.898,1.51,7.296,0.623c2.406-0.905,4.275-2.842,5.094-5.274 c1.425-4.241,3.482-8.346,6.127-12.211C305.169,171.145,305.655,168.883,305.263,166.682z M285.304,170.965 c-9.694-3.584-18.671-3.584-28.715-3.584c-30.66,0-60.151,16.657-75.418,42.505c-8.294,9.105-14.43,19.627-17.954,30.746 c-16.444,3.422-30.857,12.126-41.651,25.088c-22.827-19.388-36.233-47.957-36.233-77.986c0-56.465,45.935-102.4,102.4-102.4 c48.563,0,90.138,33.911,100.105,81.092C286.925,167.919,286.089,169.429,285.304,170.965z"/></g></g><g><g><path fill="$COLOR" d="M187.733,102.4c-20.369,0-42.044,7.262-56.559,18.953c-3.669,2.953-4.241,8.329-1.289,11.998 c1.681,2.099,4.156,3.183,6.647,3.183c1.886,0,3.772-0.614,5.35-1.886c11.443-9.225,29.44-15.181,45.85-15.181 c4.71,0,8.533-3.823,8.533-8.533C196.267,106.223,192.444,102.4,187.733,102.4z"/></g></g><g><g><path fill="$COLOR" d="M130.748,225.126c-9.916-15.147-13.491-33.954-9.796-51.584c0.964-4.608-1.988-9.139-6.605-10.104 c-4.625-0.939-9.131,1.997-10.103,6.605c-4.608,22.033-0.154,45.517,12.237,64.435c1.63,2.5,4.361,3.857,7.142,3.857 c1.604,0,3.226-0.452,4.659-1.399C132.224,234.359,133.333,229.069,130.748,225.126z"/></g></g><g><g><path fill="$COLOR" d="M503.467,384H8.533C3.823,384,0,387.823,0,392.533s3.823,8.533,8.533,8.533h494.933c4.71,0,8.533-3.823,8.533-8.533 S508.177,384,503.467,384z"/></g></g><g><g><path fill="$COLOR" d="M290.133,486.4H119.467c-4.71,0-8.533,3.823-8.533,8.533s3.823,8.533,8.533,8.533h170.667c4.71,0,8.533-3.823,8.533-8.533 S294.844,486.4,290.133,486.4z"/></g></g><g><g><path fill="$COLOR" d="M401.067,486.4h-76.8c-4.71,0-8.533,3.823-8.533,8.533s3.823,8.533,8.533,8.533h76.8c4.71,0,8.533-3.823,8.533-8.533 S405.777,486.4,401.067,486.4z"/></g></g><g><g><path fill="$COLOR" d="M443.733,435.2H179.2c-4.71,0-8.533,3.823-8.533,8.533s3.823,8.533,8.533,8.533h264.533c4.71,0,8.533-3.823,8.533-8.533 S448.444,435.2,443.733,435.2z"/></g></g><g><g><path fill="$COLOR" d="M145.067,435.2H85.333c-4.71,0-8.533,3.823-8.533,8.533s3.823,8.533,8.533,8.533h59.733c4.71,0,8.533-3.823,8.533-8.533 S149.777,435.2,145.067,435.2z"/></g></g></svg>