<svg xmlns="http://www.w3.org/2000/svg" xmlns:xlink="http://www.w3.org/1999/xlink" id="Capa_1" x="0" y="0" version="1.1" viewBox="0 0 511.992 511.992" xml:space="preserve" style="enable-background:new 0 0 511.992 511.992"><g><g><path fill="$COLOR" d="M213.477,245.76c-4.195-25.615-28.229-45.966-56.193-45.966c-5.477,0-10.748,0-16.327,1.589 c-9.296-16.182-28.22-26.554-49.785-26.554c-29.767,0-53.989,24.367-53.989,54.33c0,1.649,0.085,3.324,0.248,4.998 C15.063,244,0,266.624,0,291.598c0,34.543,27.93,62.652,62.259,62.652h140.47c29.775,0,53.997-24.376,53.997-54.339 C256.726,271.588,238.622,249.588,213.477,245.76z M202.737,337.163H62.259c-24.905,0-45.171-20.445-45.171-45.564 c0-20.044,13.303-37.995,32.356-43.676c4.332-1.29,6.912-5.733,5.878-10.142c-0.701-2.982-1.042-5.801-1.042-8.621 c0-20.531,16.549-37.243,36.901-37.243c17.447,0,32.8,9.569,37.337,23.273c0.812,2.461,2.691,4.417,5.118,5.323 c2.426,0.923,5.126,0.675,7.356-0.649c4.597-2.734,7.937-2.973,16.302-2.973c21.172,0,39.746,17.216,39.746,36.833 c0,4.725,3.828,8.544,8.544,8.544c19.412,0,34.056,16.182,34.056,37.653C239.638,320.451,223.089,337.163,202.737,337.163z"/></g></g><g><g><path fill="$COLOR" d="M208.761,245.162c-9.27,0-17.276,3.699-24.683,7.484c-4.204,2.153-5.861,7.305-3.717,11.5 c1.512,2.965,4.503,4.656,7.613,4.656c1.307,0,2.64-0.299,3.887-0.94c5.784-2.956,11.423-5.613,16.9-5.613 c4.716,0,8.544-3.819,8.544-8.544C217.305,248.981,213.477,245.162,208.761,245.162z"/></g></g><g><g><path fill="$COLOR" d="M400.93,123.566c-5.878,0-11.688,0.666-17.361,1.982c-3.341-39.336-36.431-70.333-76.621-70.333 c-33.518,0-62.806,21.71-73.024,52.861c-4.084-1.068-8.236-1.598-12.414-1.598c-22.18,0-41.617,14.576-48.461,35.115 c-3.742-0.624-7.527-0.94-11.346-0.94c-27.469,0-52.169,16.336-62.926,41.634c-0.957,2.238-0.906,4.793,0.137,6.997 c1.042,2.204,2.982,3.853,5.323,4.545c12.115,3.546,20.958,11.329,24.273,21.36c0.812,2.461,2.691,4.417,5.118,5.323 c2.426,0.923,5.126,0.675,7.356-0.649c4.597-2.734,7.937-2.973,16.302-2.973c21.172,0,39.746,17.216,39.746,36.833 c0,4.725,3.828,8.544,8.544,8.544c9.996,0,18.976,4.246,25.298,11.961c1.623,1.974,4.05,3.127,6.613,3.127H400.93 c42.403,0,76.895-34.492,76.895-76.895S443.333,123.566,400.93,123.566z M400.93,260.268H241.322 c-7.57-7.869-17.182-12.85-27.853-14.499c-4.195-25.623-28.22-45.975-56.193-45.975c-5.468,0-10.74,0-16.319,1.589 c-4.93-8.595-12.619-15.576-22.291-20.266c9.347-14.431,25.435-23.376,43.035-23.376c5.161,0,10.261,0.769,15.157,2.273 c2.392,0.752,4.99,0.402,7.109-0.948c2.119-1.341,3.529-3.546,3.879-6.032c2.333-16.806,16.806-29.468,33.663-29.468 c4.93,0,9.86,1.162,14.644,3.452c2.392,1.153,5.178,1.119,7.544-0.094c2.367-1.196,4.041-3.418,4.537-6.023 c5.34-28.161,30.032-48.598,58.714-48.598c32.979,0,59.807,26.836,59.807,59.807c0,1.418-0.111,2.811-0.239,4.468 c-0.214,2.956,1.111,5.81,3.503,7.553c2.401,1.743,5.528,2.11,8.262,0.991c7.245-2.965,14.866-4.469,22.65-4.469 c32.979,0,59.807,26.836,59.807,59.807S433.909,260.268,400.93,260.268z"/></g></g><g><g><path fill="$COLOR" d="M474.561,63.28c0.162-1.675,0.248-3.349,0.248-4.998c0-29.955-24.222-54.331-53.989-54.331 c-21.565,0-40.481,10.372-49.768,26.563c-5.579-1.589-10.851-1.589-16.327-1.589c-21.214,0-41.831,12.525-51.297,31.168 c-1.307,2.572-1.23,5.622,0.205,8.125c1.435,2.495,4.033,4.101,6.903,4.272c31.527,1.88,56.219,28.067,56.219,59.619 c0,1.418-0.111,2.811-0.239,4.468c-0.214,2.956,1.111,5.81,3.503,7.553c2.401,1.743,5.528,2.11,8.262,0.991 c7.245-2.965,14.866-4.469,22.65-4.469c23.692,0,45.171,14.046,54.741,35.756c1.393,3.161,4.503,5.109,7.818,5.109 c0.726,0,1.461-0.094,2.187-0.282c27.272-7.271,46.316-32.151,46.316-60.516C511.992,95.747,496.929,73.114,474.561,63.28z M467.751,162.466c-13.576-23.863-39.02-38.9-66.822-38.9c-5.878,0-11.688,0.666-17.378,1.982 c-2.785-32.672-26.161-59.781-57.398-67.821c7.51-7.262,17.917-11.714,28.554-11.714c8.364,0,11.705,0.248,16.302,2.973 c2.23,1.324,4.938,1.564,7.356,0.649c2.426-0.906,4.306-2.862,5.118-5.323c4.528-13.704,19.882-23.273,37.337-23.273 c20.352,0,36.91,16.712,36.91,37.243c0,2.819-0.342,5.639-1.042,8.621c-1.034,4.409,1.546,8.86,5.878,10.142 c19.044,5.682,32.347,23.632,32.347,43.676C494.912,139.03,484.027,155.332,467.751,162.466z"/></g></g><g><g><path fill="$COLOR" d="M381.339,348.21c-3.332-3.341-8.749-3.341-12.081,0c-36.26,36.26-36.679,72.845-36.679,74.391 c0,23.555,19.164,42.719,42.719,42.719c23.555,0,42.719-19.164,42.719-42.719C418.017,421.055,417.599,384.47,381.339,348.21z M375.298,448.233c-14.132,0-25.632-11.5-25.632-25.589c0-0.282,0.607-27.195,25.632-55.885 c25.025,28.69,25.632,55.604,25.632,55.843C400.93,436.733,389.43,448.233,375.298,448.233z"/></g></g><g><g><path fill="$COLOR" d="M201.558,339.324c-3.238-2.888-8.117-2.888-11.355,0c-28.178,25.051-28.502,50.862-28.502,51.947 c0,17.276,15.328,31.33,34.175,31.33s34.175-14.055,34.184-31.33C230.061,390.186,229.736,364.375,201.558,339.324z M195.877,405.513c-9.424,0-17.088-6.391-17.088-14.149c0.017-0.718,0.547-16.242,17.088-33.774 c16.541,17.523,17.071,33.048,17.088,33.68C212.965,399.123,205.301,405.513,195.877,405.513z"/></g></g><g><g><path fill="$COLOR" d="M286.997,424.763c-3.238-2.888-8.117-2.888-11.355,0c-28.178,25.051-28.502,50.862-28.502,51.947 c0,17.276,15.328,31.33,34.175,31.33s34.175-14.055,34.184-31.33C315.499,475.624,315.175,449.813,286.997,424.763z M281.315,490.952c-9.424,0-17.088-6.391-17.088-14.149c0.017-0.718,0.547-16.242,17.088-33.774 c16.541,17.523,17.071,33.048,17.088,33.68C298.403,484.561,290.739,490.952,281.315,490.952z"/></g></g><g><g><path fill="$COLOR" d="M321.173,262.429c-3.238-2.888-8.117-2.888-11.355,0c-28.178,25.051-28.502,50.862-28.502,51.947 c0,17.276,15.328,31.33,34.175,31.33s34.175-14.055,34.184-31.33C349.675,313.291,349.35,287.48,321.173,262.429z M315.491,328.619c-9.424,0-17.088-6.391-17.088-14.149c0.017-0.718,0.547-16.242,17.088-33.774 c16.541,17.523,17.071,33.048,17.088,33.68C332.579,322.228,324.915,328.619,315.491,328.619z"/></g></g></svg>