<svg xmlns="http://www.w3.org/2000/svg" xmlns:xlink="http://www.w3.org/1999/xlink" id="Capa_1" x="0" y="0" version="1.1" viewBox="0 0 512 512" xml:space="preserve" style="enable-background:new 0 0 512 512"><g><g><path fill="$COLOR" d="M332.331,188.134c-4.531-39.765-41.822-71.953-85.453-71.953c-10.044,0-19.021,0-28.698,3.584 C205.03,93.722,175.215,76.8,140.945,76.8c-44.86,0-81.357,36.216-81.365,80.742c0,3.61,0.273,7.27,0.802,10.974 C24.474,182.391,0,217.327,0,256c0,51.755,42.436,93.867,94.601,93.867H319.71c44.86,0,81.357-36.215,81.357-80.742 C401.067,225.621,372.045,192.154,332.331,188.134z M319.701,332.8H94.601c-42.752,0-77.534-34.449-77.534-76.8 c0-33.741,22.818-64.009,55.484-73.6c4.361-1.28,6.955-5.751,5.897-10.172c-1.195-4.992-1.801-9.924-1.801-14.686 c0-35.106,28.843-63.676,64.299-63.676c30.182,0,56.806,16.503,64.734,40.132c0.819,2.432,2.688,4.369,5.094,5.274 c2.406,0.887,5.086,0.666,7.305-0.623c8.832-5.163,15.949-5.402,28.8-5.402c36.685,0,68.855,29.449,68.855,63.019 c0,4.719,3.823,8.533,8.533,8.533c34.048,0,59.733,27.648,59.733,64.324C384,304.23,355.157,332.8,319.701,332.8z"/></g></g><g><g><path fill="$COLOR" d="M324.267,187.733c-12.57,0-26.069,3.362-38.016,9.463c-4.198,2.142-5.862,7.287-3.721,11.486 c1.51,2.953,4.497,4.651,7.603,4.651c1.314,0,2.637-0.299,3.883-0.93c9.455-4.838,20.48-7.603,30.251-7.603 c4.71,0,8.533-3.814,8.533-8.533S328.977,187.733,324.267,187.733z"/></g></g><g><g><path fill="$COLOR" d="M451.61,91.716c0.538-3.695,0.802-7.364,0.802-10.974C452.412,36.215,415.915,0,371.055,0 c-34.278,0-64.094,16.922-77.244,42.965c-9.677-3.584-18.662-3.584-28.698-3.584c-37.922,0-70.468,25.591-79.138,62.242 c-0.751,3.166,0.367,6.485,2.876,8.55c8.098,6.673,13.764,14.694,16.828,23.825c0.819,2.432,2.688,4.369,5.094,5.274 c2.406,0.887,5.086,0.666,7.305-0.623c8.832-5.163,15.949-5.402,28.8-5.402c36.676,0,68.855,29.449,68.855,63.019 c0,4.719,3.823,8.533,8.533,8.533c32.589,0,57.634,25.318,59.537,60.203c0.256,4.523,3.994,8.064,8.525,8.064h25.071 c52.164,0,94.601-42.112,94.601-93.867C512,140.527,487.526,105.591,451.61,91.716z M417.399,256h-17.331 c-5.274-37.231-32.29-64.282-67.729-67.874c-4.54-39.765-41.822-71.953-85.461-71.953c-10.044,0-19.029,0-28.715,3.593 c-3.541-6.963-8.346-13.389-14.242-19.021c8.422-26.317,32.913-44.297,61.193-44.297c12.851,0,19.968,0.247,28.8,5.402 c2.219,1.289,4.898,1.502,7.305,0.623c2.406-0.905,4.275-2.842,5.094-5.274c7.945-23.629,34.56-40.132,64.742-40.132 c35.447,0,64.29,28.57,64.29,63.676c0,4.753-0.597,9.694-1.792,14.686c-1.05,4.412,1.536,8.892,5.897,10.172 c32.666,9.591,55.484,39.859,55.484,73.6C494.933,221.551,460.151,256,417.399,256z"/></g></g><g><g><path fill="$COLOR" d="M93.867,366.933c-4.71,0-8.533,3.814-8.533,8.533V460.8c0,4.719,3.823,8.533,8.533,8.533c4.71,0,8.533-3.814,8.533-8.533 v-85.333C102.4,370.748,98.577,366.933,93.867,366.933z"/></g></g><g><g><path fill="$COLOR" d="M136.533,409.6H51.2c-4.71,0-8.533,3.814-8.533,8.533s3.823,8.533,8.533,8.533h85.333c4.71,0,8.533-3.814,8.533-8.533 S141.244,409.6,136.533,409.6z"/></g></g><g><g><path fill="$COLOR" d="M125.5,386.5c-3.328-3.337-8.738-3.337-12.066,0l-51.2,51.2c-3.336,3.337-3.336,8.73,0,12.066 c1.664,1.664,3.849,2.5,6.033,2.5s4.369-0.836,6.033-2.5l51.2-51.2C128.836,395.23,128.836,389.837,125.5,386.5z"/></g></g><g><g><path fill="$COLOR" d="M125.5,437.7l-51.2-51.2c-3.328-3.337-8.738-3.337-12.066,0c-3.336,3.337-3.336,8.73,0,12.066l51.2,51.2 c1.664,1.664,3.849,2.5,6.033,2.5s4.369-0.836,6.033-2.5C128.836,446.43,128.836,441.037,125.5,437.7z"/></g></g><g><g><path fill="$COLOR" d="M204.8,409.6c-4.71,0-8.533,3.814-8.533,8.533v85.333c0,4.719,3.823,8.533,8.533,8.533c4.71,0,8.533-3.814,8.533-8.533 v-85.333C213.333,413.414,209.51,409.6,204.8,409.6z"/></g></g><g><g><path fill="$COLOR" d="M247.467,452.267h-85.333c-4.71,0-8.533,3.814-8.533,8.533c0,4.719,3.823,8.533,8.533,8.533h85.333 c4.71,0,8.533-3.814,8.533-8.533C256,456.081,252.177,452.267,247.467,452.267z"/></g></g><g><g><path fill="$COLOR" d="M236.433,429.167c-3.328-3.336-8.738-3.336-12.066,0l-51.2,51.2c-3.337,3.337-3.337,8.73,0,12.066 c1.664,1.664,3.849,2.5,6.033,2.5c2.185,0,4.369-0.836,6.033-2.5l51.2-51.2C239.77,437.897,239.77,432.503,236.433,429.167z"/></g></g><g><g><path fill="$COLOR" d="M236.433,480.367l-51.2-51.2c-3.328-3.336-8.738-3.336-12.066,0c-3.337,3.337-3.337,8.73,0,12.066l51.2,51.2 c1.664,1.664,3.849,2.5,6.033,2.5c2.185,0,4.369-0.836,6.033-2.5C239.77,489.097,239.77,483.703,236.433,480.367z"/></g></g><g><g><path fill="$COLOR" d="M426.667,409.6c-4.71,0-8.533,3.814-8.533,8.533v85.333c0,4.719,3.823,8.533,8.533,8.533s8.533-3.814,8.533-8.533v-85.333 C435.2,413.414,431.377,409.6,426.667,409.6z"/></g></g><g><g><path fill="$COLOR" d="M469.333,452.267H384c-4.71,0-8.533,3.814-8.533,8.533c0,4.719,3.823,8.533,8.533,8.533h85.333 c4.71,0,8.533-3.814,8.533-8.533C477.867,456.081,474.044,452.267,469.333,452.267z"/></g></g><g><g><path fill="$COLOR" d="M458.3,429.167c-3.328-3.336-8.738-3.336-12.066,0l-51.2,51.2c-3.337,3.337-3.337,8.73,0,12.066 c1.664,1.664,3.849,2.5,6.033,2.5c2.185,0,4.369-0.836,6.033-2.5l51.2-51.2C461.636,437.897,461.636,432.503,458.3,429.167z"/></g></g><g><g><path fill="$COLOR" d="M458.3,480.367l-51.2-51.2c-3.328-3.336-8.738-3.336-12.066,0c-3.337,3.337-3.337,8.73,0,12.066l51.2,51.2 c1.664,1.664,3.849,2.5,6.033,2.5c2.185,0,4.369-0.836,6.033-2.5C461.636,489.097,461.636,483.703,458.3,480.367z"/></g></g><g><g><path fill="$COLOR" d="M315.733,366.933c-4.71,0-8.533,3.814-8.533,8.533V460.8c0,4.719,3.823,8.533,8.533,8.533s8.533-3.814,8.533-8.533 v-85.333C324.267,370.748,320.444,366.933,315.733,366.933z"/></g></g><g><g><path fill="$COLOR" d="M358.4,409.6h-85.333c-4.71,0-8.533,3.814-8.533,8.533s3.823,8.533,8.533,8.533H358.4c4.71,0,8.533-3.814,8.533-8.533 S363.11,409.6,358.4,409.6z"/></g></g><g><g><path fill="$COLOR" d="M347.366,386.5c-3.328-3.337-8.738-3.337-12.066,0l-51.2,51.2c-3.337,3.337-3.337,8.73,0,12.066 c1.664,1.664,3.849,2.5,6.033,2.5c2.185,0,4.369-0.836,6.033-2.5l51.2-51.2C350.703,395.23,350.703,389.837,347.366,386.5z"/></g></g><g><g><path fill="$COLOR" d="M347.366,437.7l-51.2-51.2c-3.328-3.337-8.738-3.337-12.066,0c-3.337,3.337-3.337,8.73,0,12.066l51.2,51.2 c1.664,1.664,3.849,2.5,6.033,2.5c2.185,0,4.369-0.836,6.033-2.5C350.703,446.43,350.703,441.037,347.366,437.7z"/></g></g></svg>