<svg xmlns="http://www.w3.org/2000/svg" xmlns:xlink="http://www.w3.org/1999/xlink" id="Capa_1" x="0" y="0" version="1.1" viewBox="0 0 512 512" xml:space="preserve" style="enable-background:new 0 0 512 512"><g><g><path fill="$COLOR" d="M323.703,162.551c-4.642-33.562-37.461-61.466-74.479-61.466c-8.516,0-16.162,0-24.388,2.765 c-11.836-21.598-37.734-35.584-67.413-35.584c-39.501,0-71.646,30.814-71.646,68.702c0,2.68,0.179,5.419,0.538,8.166 c-31.078,11.981-52.181,41.361-52.181,73.89c0,43.913,37.291,79.642,83.123,79.642h195.098c39.509,0,71.646-30.822,71.646-68.71 C384,193.98,358.596,166.229,323.703,162.551z M312.346,281.6H117.257c-36.42,0-66.057-28.075-66.057-62.575 c0-27.46,19.405-52.105,47.189-59.938c4.429-1.254,7.074-5.803,5.965-10.274c-0.998-4.028-1.51-8.013-1.51-11.844 c0-28.467,24.482-51.635,54.579-51.635c25.728,0,48.367,13.389,55.066,32.58c0.828,2.381,2.68,4.275,5.035,5.163 c2.372,0.887,5.001,0.708,7.194-0.538c7.458-4.198,13.534-4.386,24.516-4.386c30.882,0,57.967,24.542,57.967,52.514 c0,4.719,3.823,8.533,8.533,8.533c29.67,0,51.2,21.35,51.2,50.756C366.933,258.432,342.451,281.6,312.346,281.6z"/></g></g><g><g><path fill="$COLOR" d="M315.733,162.133c-12.194,0-28.902,4.813-38.016,9.463c-4.198,2.142-5.862,7.287-3.721,11.486 c1.51,2.953,4.506,4.651,7.612,4.651c1.306,0,2.628-0.299,3.874-0.93c7.185-3.669,21.052-7.603,30.251-7.603 c4.71,0,8.533-3.814,8.533-8.533S320.444,162.133,315.733,162.133z"/></g></g><g><g><path fill="$COLOR" d="M212.531,397.449c-1.408-2.995-4.42-4.915-7.731-4.915h-23.492l14.754-66.423c0.862-3.857-1.041-7.799-4.599-9.523 c-3.567-1.749-7.842-0.777-10.334,2.278l-76.8,93.867c-2.091,2.551-2.526,6.076-1.109,9.062c1.417,2.97,4.42,4.872,7.714,4.872 h22.664l-22.306,74.351c-1.161,3.883,0.563,8.047,4.139,9.967c1.28,0.683,2.662,1.015,4.036,1.015c2.466,0,4.89-1.067,6.554-3.072 l85.333-102.4C213.478,403.985,213.939,400.444,212.531,397.449z M139.631,465.929l13.611-45.346 c0.777-2.586,0.282-5.385-1.331-7.543c-1.604-2.167-4.147-3.439-6.844-3.439h-16.119l42.675-52.164l-9.284,41.779 c-0.563,2.526,0.06,5.171,1.673,7.194c1.621,2.014,4.07,3.191,6.656,3.191h15.915L139.631,465.929z"/></g></g><g><g><path fill="$COLOR" d="M408.798,397.449c-1.408-2.995-4.42-4.915-7.731-4.915h-23.492l14.754-66.423c0.862-3.857-1.041-7.799-4.599-9.523 c-3.567-1.749-7.842-0.777-10.334,2.278l-76.8,93.867c-2.091,2.551-2.526,6.076-1.109,9.062c1.417,2.97,4.42,4.872,7.714,4.872 h22.664l-22.306,74.351c-1.161,3.883,0.563,8.047,4.139,9.967c1.28,0.683,2.662,1.015,4.036,1.015c2.466,0,4.89-1.067,6.554-3.072 l85.333-102.4C409.745,403.985,410.206,400.444,408.798,397.449z M335.898,465.929l13.611-45.346 c0.777-2.586,0.282-5.385-1.331-7.543c-1.604-2.167-4.147-3.439-6.844-3.439h-16.119l42.675-52.164l-9.284,41.779 c-0.563,2.526,0.06,5.171,1.673,7.194c1.621,2.014,4.07,3.191,6.656,3.191h15.915L335.898,465.929z"/></g></g><g><g><path fill="$COLOR" d="M425.916,79.906c0.384-2.961,0.58-5.905,0.58-8.798C426.496,31.898,394.505,0,355.183,0 c-29.594,0-55.398,14.515-67.166,36.949c-8.132-2.816-15.718-2.816-24.158-2.816c-33.246,0-61.773,22.554-69.368,54.818 c-0.742,3.157,0.375,6.468,2.867,8.533c1.749,1.451,3.533,3.209,5.709,5.658c4.25,4.412,7.347,9.225,9.199,14.319 c0.862,2.364,2.714,4.215,5.06,5.086c2.347,0.879,4.958,0.674,7.151-0.563c7.159-4.036,13.03-4.224,23.654-4.224 c5.589,0,11.213,0.828,16.939,2.509c24.414,6.426,42.129,27.622,42.129,50.398c0,4.719,3.823,8.533,8.533,8.533 c29.67,0,51.2,21.35,51.217,50.253c-0.026,0.239-0.043,0.708-0.043,0.947c0,4.719,3.823,8.533,8.533,8.533h19.695 c45.619,0,82.731-37.009,82.731-82.492C477.867,122.769,456.858,92.322,425.916,79.906z M395.136,221.867h-11.571 c-3.499-31.983-27.631-55.91-59.853-59.315c-3.661-27.179-25.344-51.157-54.05-58.718c-7.049-2.082-14.293-3.14-21.53-3.14 c-7.936,0-15.548,0-23.646,2.688c-2.406-4.233-5.402-8.209-8.883-11.81c-1.067-1.212-2.125-2.338-3.174-3.388 c7.287-21.999,27.785-36.983,51.43-36.983c11.17,0,16.862,0.188,24.226,4.514c2.219,1.297,4.907,1.527,7.313,0.631 c2.406-0.904,4.284-2.85,5.094-5.282c6.69-20.011,29.175-33.997,54.69-33.997c29.918,0,54.246,24.243,54.255,54.042 c0,4.045-0.512,8.243-1.519,12.476c-1.05,4.403,1.527,8.875,5.879,10.155c27.674,8.175,47.002,33.963,47.002,62.703 C460.8,192.521,431.351,221.867,395.136,221.867z"/></g></g><g><g><path fill="$COLOR" d="M96.905,316.297c-4.403-1.69-9.344,0.529-11.017,4.932l-10.633,27.913c-1.672,4.412,0.538,9.344,4.941,11.017 c0.998,0.375,2.022,0.555,3.038,0.555c3.439,0,6.682-2.099,7.979-5.487l10.633-27.913 C103.518,322.901,101.308,317.969,96.905,316.297z"/></g></g><g><g><path fill="$COLOR" d="M70.605,385.331c-4.403-1.69-9.344,0.521-11.017,4.932l-15.667,41.122c-1.672,4.412,0.538,9.344,4.941,11.017 c0.998,0.375,2.022,0.555,3.038,0.555c3.439,0,6.682-2.091,7.979-5.487l15.667-41.122 C77.218,391.936,75.008,387.004,70.605,385.331z"/></g></g><g><g><path fill="$COLOR" d="M39.27,467.584c-4.403-1.681-9.344,0.521-11.017,4.932l-10.633,27.913c-1.673,4.412,0.538,9.344,4.941,11.017 C23.561,511.821,24.585,512,25.6,512c3.439,0,6.682-2.091,7.979-5.487l10.633-27.913C45.884,474.189,43.674,469.257,39.27,467.584 z"/></g></g><g><g><path fill="$COLOR" d="M293.171,316.297c-4.403-1.69-9.344,0.529-11.017,4.932l-10.633,27.913c-1.672,4.412,0.538,9.344,4.941,11.017 c0.998,0.375,2.022,0.555,3.038,0.555c3.439,0,6.682-2.099,7.979-5.487l10.633-27.913 C299.785,322.901,297.574,317.969,293.171,316.297z"/></g></g><g><g><path fill="$COLOR" d="M266.871,385.331c-4.403-1.69-9.344,0.521-11.017,4.932l-15.667,41.122c-1.673,4.412,0.538,9.344,4.941,11.017 c0.998,0.375,2.022,0.555,3.038,0.555c3.439,0,6.682-2.091,7.979-5.487l15.667-41.122 C273.485,391.936,271.275,387.004,266.871,385.331z"/></g></g><g><g><path fill="$COLOR" d="M235.537,467.584c-4.403-1.681-9.344,0.521-11.017,4.932l-10.633,27.913c-1.673,4.412,0.538,9.344,4.941,11.017 c0.998,0.375,2.022,0.555,3.038,0.555c3.439,0,6.682-2.091,7.979-5.487l10.633-27.913 C242.15,474.189,239.94,469.257,235.537,467.584z"/></g></g><g><g><path fill="$COLOR" d="M489.438,316.297c-4.403-1.69-9.344,0.529-11.017,4.932l-10.633,27.913c-1.673,4.412,0.538,9.344,4.941,11.017 c0.998,0.375,2.022,0.555,3.038,0.555c3.439,0,6.682-2.099,7.979-5.487l10.633-27.913 C496.051,322.901,493.841,317.969,489.438,316.297z"/></g></g><g><g><path fill="$COLOR" d="M463.138,385.331c-4.403-1.69-9.344,0.521-11.017,4.932l-15.667,41.122c-1.673,4.412,0.538,9.344,4.941,11.017 c0.998,0.375,2.022,0.555,3.038,0.555c3.439,0,6.682-2.091,7.979-5.487l15.667-41.122 C469.752,391.936,467.541,387.004,463.138,385.331z"/></g></g><g><g><path fill="$COLOR" d="M431.804,467.584c-4.403-1.681-9.344,0.521-11.017,4.932l-10.633,27.913c-1.673,4.412,0.538,9.344,4.941,11.017 c0.998,0.375,2.022,0.555,3.038,0.555c3.439,0,6.682-2.091,7.979-5.487l10.633-27.913 C438.417,474.189,436.207,469.257,431.804,467.584z"/></g></g></svg>