<svg xmlns="http://www.w3.org/2000/svg" xmlns:xlink="http://www.w3.org/1999/xlink" id="Capa_1" x="0" y="0" version="1.1" viewBox="0 0 512 512" xml:space="preserve" style="enable-background:new 0 0 512 512"><g><g><path fill="$COLOR" d="M332.331,188.134c-4.531-39.765-41.822-71.953-85.453-71.953c-10.035,0-19.021,0-28.698,3.584 C205.039,93.722,175.223,76.8,140.945,76.8c-44.86,0-81.357,36.215-81.357,80.742c0,3.61,0.265,7.27,0.794,10.974 C24.474,182.391,0,217.327,0,256c0,51.755,42.436,93.867,94.601,93.867h225.101c44.868,0,81.365-36.216,81.365-80.742 C401.067,225.621,372.045,192.154,332.331,188.134z M319.701,332.8H94.601c-42.752,0-77.534-34.449-77.534-76.8 c0-33.741,22.818-64.009,55.484-73.6c4.361-1.28,6.955-5.751,5.897-10.172c-1.186-4.992-1.792-9.933-1.792-14.686 c0-35.106,28.843-63.676,64.29-63.676c30.182,0,56.806,16.503,64.751,40.132c0.819,2.432,2.688,4.369,5.094,5.274 c2.389,0.887,5.077,0.666,7.296-0.623c8.832-5.163,15.949-5.402,28.8-5.402c36.676,0,68.847,29.449,68.847,63.019 c0,4.719,3.823,8.533,8.533,8.533c34.048,0,59.733,27.648,59.733,64.324C384,304.23,355.157,332.8,319.701,332.8z"/></g></g><g><g><path fill="$COLOR" d="M324.267,187.733c-12.57,0-26.069,3.362-38.024,9.463c-4.198,2.142-5.862,7.287-3.721,11.486 c1.51,2.953,4.506,4.651,7.612,4.651c1.306,0,2.637-0.299,3.883-0.93c9.446-4.838,20.48-7.603,30.251-7.603 c4.71,0,8.533-3.814,8.533-8.533S328.977,187.733,324.267,187.733z"/></g></g><g><g><path fill="$COLOR" d="M426.667,332.8H110.933c-4.71,0-8.533,3.814-8.533,8.533c0,4.719,3.823,8.533,8.533,8.533h315.733 c37.641,0,68.267,30.626,68.267,68.267c0,37.641-30.626,68.267-68.267,68.267S358.4,455.774,358.4,418.133 c0-4.719-3.823-8.533-8.533-8.533s-8.533,3.814-8.533,8.533c0,47.053,38.281,85.333,85.333,85.333S512,465.186,512,418.133 S473.719,332.8,426.667,332.8z"/></g></g><g><g><path fill="$COLOR" d="M247.467,375.467h-179.2c-4.71,0-8.533,3.814-8.533,8.533s3.823,8.533,8.533,8.533h179.2 c23.526,0,42.667,19.14,42.667,42.667s-19.14,42.667-42.667,42.667c-23.526,0-42.667-19.14-42.667-42.667 c0-4.719-3.823-8.533-8.533-8.533s-8.533,3.814-8.533,8.533c0,32.93,26.795,59.733,59.733,59.733S307.2,468.13,307.2,435.2 C307.2,402.27,280.405,375.467,247.467,375.467z"/></g></g><g><g><path fill="$COLOR" d="M452.267,110.933c-32.939,0-59.733,26.803-59.733,59.733c0,4.719,3.823,8.533,8.533,8.533s8.533-3.814,8.533-8.533 c0-23.526,19.14-42.667,42.667-42.667c23.526,0,42.667,19.14,42.667,42.667c0,23.526-19.14,42.667-42.667,42.667H384 c-4.71,0-8.533,3.814-8.533,8.533c0,4.719,3.823,8.533,8.533,8.533h68.267c32.939,0,59.733-26.803,59.733-59.733 C512,137.737,485.205,110.933,452.267,110.933z"/></g></g><g><g><path fill="$COLOR" d="M34.133,375.467h-25.6C3.823,375.467,0,379.281,0,384s3.823,8.533,8.533,8.533h25.6c4.71,0,8.533-3.814,8.533-8.533 S38.844,375.467,34.133,375.467z"/></g></g><g><g><path fill="$COLOR" d="M503.467,264.533h-8.533c-4.71,0-8.533,3.814-8.533,8.533s3.823,8.533,8.533,8.533h8.533c4.71,0,8.533-3.814,8.533-8.533 S508.177,264.533,503.467,264.533z"/></g></g><g><g><path fill="$COLOR" d="M460.8,264.533h-34.133c-4.71,0-8.533,3.814-8.533,8.533s3.823,8.533,8.533,8.533H460.8c4.71,0,8.533-3.814,8.533-8.533 S465.51,264.533,460.8,264.533z"/></g></g><g><g><path fill="$COLOR" d="M358.4,8.533H256c-4.71,0-8.533,3.814-8.533,8.533S251.29,25.6,256,25.6h102.4c4.71,0,8.533-3.814,8.533-8.533 S363.11,8.533,358.4,8.533z"/></g></g><g><g><path fill="$COLOR" d="M418.133,8.533h-25.6c-4.71,0-8.533,3.814-8.533,8.533s3.823,8.533,8.533,8.533h25.6c4.71,0,8.533-3.814,8.533-8.533 S422.844,8.533,418.133,8.533z"/></g></g><g><g><path fill="$COLOR" d="M384,51.2H281.6c-4.71,0-8.533,3.814-8.533,8.533s3.823,8.533,8.533,8.533H384c4.71,0,8.533-3.814,8.533-8.533 S388.71,51.2,384,51.2z"/></g></g><g><g><path fill="$COLOR" d="M247.467,51.2h-25.6c-4.71,0-8.533,3.814-8.533,8.533s3.823,8.533,8.533,8.533h25.6c4.71,0,8.533-3.814,8.533-8.533 S252.177,51.2,247.467,51.2z"/></g></g></svg>